<mxfile host="app.diagrams.net" modified="2024-05-20T13:17:14.171Z" agent="Mozilla/5.0 (Windows NT 10.0; Win64; x64) AppleWebKit/537.36 (KHTML, like Gecko) Chrome/125.0.0.0 Safari/537.36" etag="OnEXF4ZG6LI-xjjuiuMg" version="24.4.4" type="github">
  <diagram name="Page-1" id="CHw2wgoBrfi9WDpYUXVN">
    <mxGraphModel dx="1793" dy="943" grid="1" gridSize="10" guides="1" tooltips="1" connect="1" arrows="1" fold="1" page="1" pageScale="1" pageWidth="827" pageHeight="1169" math="0" shadow="0">
      <root>
        <mxCell id="0" />
        <mxCell id="1" parent="0" />
        <mxCell id="5w2kK9chXB2fheSoxRfk-1" value="users" style="shape=table;startSize=30;container=1;collapsible=1;childLayout=tableLayout;fixedRows=1;rowLines=0;fontStyle=1;align=center;resizeLast=1;html=1;" parent="1" vertex="1">
          <mxGeometry x="221" y="660" width="180" height="330" as="geometry" />
        </mxCell>
        <mxCell id="5w2kK9chXB2fheSoxRfk-2" value="" style="shape=tableRow;horizontal=0;startSize=0;swimlaneHead=0;swimlaneBody=0;fillColor=none;collapsible=0;dropTarget=0;points=[[0,0.5],[1,0.5]];portConstraint=eastwest;top=0;left=0;right=0;bottom=1;" parent="5w2kK9chXB2fheSoxRfk-1" vertex="1">
          <mxGeometry y="30" width="180" height="30" as="geometry" />
        </mxCell>
        <mxCell id="5w2kK9chXB2fheSoxRfk-3" value="PK" style="shape=partialRectangle;connectable=0;fillColor=none;top=0;left=0;bottom=0;right=0;fontStyle=1;overflow=hidden;whiteSpace=wrap;html=1;" parent="5w2kK9chXB2fheSoxRfk-2" vertex="1">
          <mxGeometry width="30" height="30" as="geometry">
            <mxRectangle width="30" height="30" as="alternateBounds" />
          </mxGeometry>
        </mxCell>
        <mxCell id="5w2kK9chXB2fheSoxRfk-4" value="user_id" style="shape=partialRectangle;connectable=0;fillColor=none;top=0;left=0;bottom=0;right=0;align=left;spacingLeft=6;fontStyle=5;overflow=hidden;whiteSpace=wrap;html=1;" parent="5w2kK9chXB2fheSoxRfk-2" vertex="1">
          <mxGeometry x="30" width="150" height="30" as="geometry">
            <mxRectangle width="150" height="30" as="alternateBounds" />
          </mxGeometry>
        </mxCell>
        <mxCell id="5w2kK9chXB2fheSoxRfk-77" style="shape=tableRow;horizontal=0;startSize=0;swimlaneHead=0;swimlaneBody=0;fillColor=none;collapsible=0;dropTarget=0;points=[[0,0.5],[1,0.5]];portConstraint=eastwest;top=0;left=0;right=0;bottom=0;" parent="5w2kK9chXB2fheSoxRfk-1" vertex="1">
          <mxGeometry y="60" width="180" height="30" as="geometry" />
        </mxCell>
        <mxCell id="5w2kK9chXB2fheSoxRfk-78" value="UK" style="shape=partialRectangle;connectable=0;fillColor=none;top=0;left=0;bottom=0;right=0;editable=1;overflow=hidden;whiteSpace=wrap;html=1;" parent="5w2kK9chXB2fheSoxRfk-77" vertex="1">
          <mxGeometry width="30" height="30" as="geometry">
            <mxRectangle width="30" height="30" as="alternateBounds" />
          </mxGeometry>
        </mxCell>
        <mxCell id="5w2kK9chXB2fheSoxRfk-79" value="email" style="shape=partialRectangle;connectable=0;fillColor=none;top=0;left=0;bottom=0;right=0;align=left;spacingLeft=6;overflow=hidden;whiteSpace=wrap;html=1;" parent="5w2kK9chXB2fheSoxRfk-77" vertex="1">
          <mxGeometry x="30" width="150" height="30" as="geometry">
            <mxRectangle width="150" height="30" as="alternateBounds" />
          </mxGeometry>
        </mxCell>
        <mxCell id="ogQs9MKbzwKdtU0zCuGk-11" style="shape=tableRow;horizontal=0;startSize=0;swimlaneHead=0;swimlaneBody=0;fillColor=none;collapsible=0;dropTarget=0;points=[[0,0.5],[1,0.5]];portConstraint=eastwest;top=0;left=0;right=0;bottom=0;" parent="5w2kK9chXB2fheSoxRfk-1" vertex="1">
          <mxGeometry y="90" width="180" height="30" as="geometry" />
        </mxCell>
        <mxCell id="ogQs9MKbzwKdtU0zCuGk-12" style="shape=partialRectangle;connectable=0;fillColor=none;top=0;left=0;bottom=0;right=0;editable=1;overflow=hidden;whiteSpace=wrap;html=1;" parent="ogQs9MKbzwKdtU0zCuGk-11" vertex="1">
          <mxGeometry width="30" height="30" as="geometry">
            <mxRectangle width="30" height="30" as="alternateBounds" />
          </mxGeometry>
        </mxCell>
        <mxCell id="ogQs9MKbzwKdtU0zCuGk-13" value="name" style="shape=partialRectangle;connectable=0;fillColor=none;top=0;left=0;bottom=0;right=0;align=left;spacingLeft=6;overflow=hidden;whiteSpace=wrap;html=1;" parent="ogQs9MKbzwKdtU0zCuGk-11" vertex="1">
          <mxGeometry x="30" width="150" height="30" as="geometry">
            <mxRectangle width="150" height="30" as="alternateBounds" />
          </mxGeometry>
        </mxCell>
        <mxCell id="5w2kK9chXB2fheSoxRfk-5" value="" style="shape=tableRow;horizontal=0;startSize=0;swimlaneHead=0;swimlaneBody=0;fillColor=none;collapsible=0;dropTarget=0;points=[[0,0.5],[1,0.5]];portConstraint=eastwest;top=0;left=0;right=0;bottom=0;" parent="5w2kK9chXB2fheSoxRfk-1" vertex="1">
          <mxGeometry y="120" width="180" height="30" as="geometry" />
        </mxCell>
        <mxCell id="5w2kK9chXB2fheSoxRfk-6" value="" style="shape=partialRectangle;connectable=0;fillColor=none;top=0;left=0;bottom=0;right=0;editable=1;overflow=hidden;whiteSpace=wrap;html=1;" parent="5w2kK9chXB2fheSoxRfk-5" vertex="1">
          <mxGeometry width="30" height="30" as="geometry">
            <mxRectangle width="30" height="30" as="alternateBounds" />
          </mxGeometry>
        </mxCell>
        <mxCell id="5w2kK9chXB2fheSoxRfk-7" value="password" style="shape=partialRectangle;connectable=0;fillColor=none;top=0;left=0;bottom=0;right=0;align=left;spacingLeft=6;overflow=hidden;whiteSpace=wrap;html=1;" parent="5w2kK9chXB2fheSoxRfk-5" vertex="1">
          <mxGeometry x="30" width="150" height="30" as="geometry">
            <mxRectangle width="150" height="30" as="alternateBounds" />
          </mxGeometry>
        </mxCell>
        <mxCell id="5w2kK9chXB2fheSoxRfk-8" value="" style="shape=tableRow;horizontal=0;startSize=0;swimlaneHead=0;swimlaneBody=0;fillColor=none;collapsible=0;dropTarget=0;points=[[0,0.5],[1,0.5]];portConstraint=eastwest;top=0;left=0;right=0;bottom=0;" parent="5w2kK9chXB2fheSoxRfk-1" vertex="1">
          <mxGeometry y="150" width="180" height="30" as="geometry" />
        </mxCell>
        <mxCell id="5w2kK9chXB2fheSoxRfk-9" value="" style="shape=partialRectangle;connectable=0;fillColor=none;top=0;left=0;bottom=0;right=0;editable=1;overflow=hidden;whiteSpace=wrap;html=1;" parent="5w2kK9chXB2fheSoxRfk-8" vertex="1">
          <mxGeometry width="30" height="30" as="geometry">
            <mxRectangle width="30" height="30" as="alternateBounds" />
          </mxGeometry>
        </mxCell>
        <mxCell id="5w2kK9chXB2fheSoxRfk-10" value="phone" style="shape=partialRectangle;connectable=0;fillColor=none;top=0;left=0;bottom=0;right=0;align=left;spacingLeft=6;overflow=hidden;whiteSpace=wrap;html=1;" parent="5w2kK9chXB2fheSoxRfk-8" vertex="1">
          <mxGeometry x="30" width="150" height="30" as="geometry">
            <mxRectangle width="150" height="30" as="alternateBounds" />
          </mxGeometry>
        </mxCell>
        <mxCell id="5w2kK9chXB2fheSoxRfk-53" style="shape=tableRow;horizontal=0;startSize=0;swimlaneHead=0;swimlaneBody=0;fillColor=none;collapsible=0;dropTarget=0;points=[[0,0.5],[1,0.5]];portConstraint=eastwest;top=0;left=0;right=0;bottom=0;" parent="5w2kK9chXB2fheSoxRfk-1" vertex="1">
          <mxGeometry y="180" width="180" height="30" as="geometry" />
        </mxCell>
        <mxCell id="5w2kK9chXB2fheSoxRfk-54" style="shape=partialRectangle;connectable=0;fillColor=none;top=0;left=0;bottom=0;right=0;editable=1;overflow=hidden;whiteSpace=wrap;html=1;" parent="5w2kK9chXB2fheSoxRfk-53" vertex="1">
          <mxGeometry width="30" height="30" as="geometry">
            <mxRectangle width="30" height="30" as="alternateBounds" />
          </mxGeometry>
        </mxCell>
        <mxCell id="5w2kK9chXB2fheSoxRfk-55" value="dob" style="shape=partialRectangle;connectable=0;fillColor=none;top=0;left=0;bottom=0;right=0;align=left;spacingLeft=6;overflow=hidden;whiteSpace=wrap;html=1;" parent="5w2kK9chXB2fheSoxRfk-53" vertex="1">
          <mxGeometry x="30" width="150" height="30" as="geometry">
            <mxRectangle width="150" height="30" as="alternateBounds" />
          </mxGeometry>
        </mxCell>
        <mxCell id="5w2kK9chXB2fheSoxRfk-11" value="" style="shape=tableRow;horizontal=0;startSize=0;swimlaneHead=0;swimlaneBody=0;fillColor=none;collapsible=0;dropTarget=0;points=[[0,0.5],[1,0.5]];portConstraint=eastwest;top=0;left=0;right=0;bottom=0;" parent="5w2kK9chXB2fheSoxRfk-1" vertex="1">
          <mxGeometry y="210" width="180" height="30" as="geometry" />
        </mxCell>
        <mxCell id="5w2kK9chXB2fheSoxRfk-12" value="" style="shape=partialRectangle;connectable=0;fillColor=none;top=0;left=0;bottom=0;right=0;editable=1;overflow=hidden;whiteSpace=wrap;html=1;" parent="5w2kK9chXB2fheSoxRfk-11" vertex="1">
          <mxGeometry width="30" height="30" as="geometry">
            <mxRectangle width="30" height="30" as="alternateBounds" />
          </mxGeometry>
        </mxCell>
        <mxCell id="5w2kK9chXB2fheSoxRfk-13" value="address" style="shape=partialRectangle;connectable=0;fillColor=none;top=0;left=0;bottom=0;right=0;align=left;spacingLeft=6;overflow=hidden;whiteSpace=wrap;html=1;" parent="5w2kK9chXB2fheSoxRfk-11" vertex="1">
          <mxGeometry x="30" width="150" height="30" as="geometry">
            <mxRectangle width="150" height="30" as="alternateBounds" />
          </mxGeometry>
        </mxCell>
        <mxCell id="5w2kK9chXB2fheSoxRfk-59" style="shape=tableRow;horizontal=0;startSize=0;swimlaneHead=0;swimlaneBody=0;fillColor=none;collapsible=0;dropTarget=0;points=[[0,0.5],[1,0.5]];portConstraint=eastwest;top=0;left=0;right=0;bottom=0;" parent="5w2kK9chXB2fheSoxRfk-1" vertex="1">
          <mxGeometry y="240" width="180" height="30" as="geometry" />
        </mxCell>
        <mxCell id="5w2kK9chXB2fheSoxRfk-60" style="shape=partialRectangle;connectable=0;fillColor=none;top=0;left=0;bottom=0;right=0;editable=1;overflow=hidden;whiteSpace=wrap;html=1;" parent="5w2kK9chXB2fheSoxRfk-59" vertex="1">
          <mxGeometry width="30" height="30" as="geometry">
            <mxRectangle width="30" height="30" as="alternateBounds" />
          </mxGeometry>
        </mxCell>
        <mxCell id="5w2kK9chXB2fheSoxRfk-61" value="document_type" style="shape=partialRectangle;connectable=0;fillColor=none;top=0;left=0;bottom=0;right=0;align=left;spacingLeft=6;overflow=hidden;whiteSpace=wrap;html=1;" parent="5w2kK9chXB2fheSoxRfk-59" vertex="1">
          <mxGeometry x="30" width="150" height="30" as="geometry">
            <mxRectangle width="150" height="30" as="alternateBounds" />
          </mxGeometry>
        </mxCell>
        <mxCell id="5w2kK9chXB2fheSoxRfk-62" style="shape=tableRow;horizontal=0;startSize=0;swimlaneHead=0;swimlaneBody=0;fillColor=none;collapsible=0;dropTarget=0;points=[[0,0.5],[1,0.5]];portConstraint=eastwest;top=0;left=0;right=0;bottom=0;" parent="5w2kK9chXB2fheSoxRfk-1" vertex="1">
          <mxGeometry y="270" width="180" height="30" as="geometry" />
        </mxCell>
        <mxCell id="5w2kK9chXB2fheSoxRfk-63" style="shape=partialRectangle;connectable=0;fillColor=none;top=0;left=0;bottom=0;right=0;editable=1;overflow=hidden;whiteSpace=wrap;html=1;" parent="5w2kK9chXB2fheSoxRfk-62" vertex="1">
          <mxGeometry width="30" height="30" as="geometry">
            <mxRectangle width="30" height="30" as="alternateBounds" />
          </mxGeometry>
        </mxCell>
        <mxCell id="5w2kK9chXB2fheSoxRfk-64" value="document_details" style="shape=partialRectangle;connectable=0;fillColor=none;top=0;left=0;bottom=0;right=0;align=left;spacingLeft=6;overflow=hidden;whiteSpace=wrap;html=1;" parent="5w2kK9chXB2fheSoxRfk-62" vertex="1">
          <mxGeometry x="30" width="150" height="30" as="geometry">
            <mxRectangle width="150" height="30" as="alternateBounds" />
          </mxGeometry>
        </mxCell>
        <mxCell id="5w2kK9chXB2fheSoxRfk-65" style="shape=tableRow;horizontal=0;startSize=0;swimlaneHead=0;swimlaneBody=0;fillColor=none;collapsible=0;dropTarget=0;points=[[0,0.5],[1,0.5]];portConstraint=eastwest;top=0;left=0;right=0;bottom=0;" parent="5w2kK9chXB2fheSoxRfk-1" vertex="1">
          <mxGeometry y="300" width="180" height="30" as="geometry" />
        </mxCell>
        <mxCell id="5w2kK9chXB2fheSoxRfk-66" style="shape=partialRectangle;connectable=0;fillColor=none;top=0;left=0;bottom=0;right=0;editable=1;overflow=hidden;whiteSpace=wrap;html=1;" parent="5w2kK9chXB2fheSoxRfk-65" vertex="1">
          <mxGeometry width="30" height="30" as="geometry">
            <mxRectangle width="30" height="30" as="alternateBounds" />
          </mxGeometry>
        </mxCell>
        <mxCell id="5w2kK9chXB2fheSoxRfk-67" value="Registration_date" style="shape=partialRectangle;connectable=0;fillColor=none;top=0;left=0;bottom=0;right=0;align=left;spacingLeft=6;overflow=hidden;whiteSpace=wrap;html=1;" parent="5w2kK9chXB2fheSoxRfk-65" vertex="1">
          <mxGeometry x="30" width="150" height="30" as="geometry">
            <mxRectangle width="150" height="30" as="alternateBounds" />
          </mxGeometry>
        </mxCell>
        <mxCell id="5w2kK9chXB2fheSoxRfk-14" value="quick_FIR_reports" style="shape=table;startSize=30;container=1;collapsible=1;childLayout=tableLayout;fixedRows=1;rowLines=0;fontStyle=1;align=center;resizeLast=1;html=1;" parent="1" vertex="1">
          <mxGeometry x="850" y="660" width="180" height="390" as="geometry" />
        </mxCell>
        <mxCell id="5w2kK9chXB2fheSoxRfk-15" value="" style="shape=tableRow;horizontal=0;startSize=0;swimlaneHead=0;swimlaneBody=0;fillColor=none;collapsible=0;dropTarget=0;points=[[0,0.5],[1,0.5]];portConstraint=eastwest;top=0;left=0;right=0;bottom=1;" parent="5w2kK9chXB2fheSoxRfk-14" vertex="1">
          <mxGeometry y="30" width="180" height="30" as="geometry" />
        </mxCell>
        <mxCell id="5w2kK9chXB2fheSoxRfk-16" value="PK" style="shape=partialRectangle;connectable=0;fillColor=none;top=0;left=0;bottom=0;right=0;fontStyle=1;overflow=hidden;whiteSpace=wrap;html=1;" parent="5w2kK9chXB2fheSoxRfk-15" vertex="1">
          <mxGeometry width="30" height="30" as="geometry">
            <mxRectangle width="30" height="30" as="alternateBounds" />
          </mxGeometry>
        </mxCell>
        <mxCell id="5w2kK9chXB2fheSoxRfk-17" value="FIR_id" style="shape=partialRectangle;connectable=0;fillColor=none;top=0;left=0;bottom=0;right=0;align=left;spacingLeft=6;fontStyle=5;overflow=hidden;whiteSpace=wrap;html=1;" parent="5w2kK9chXB2fheSoxRfk-15" vertex="1">
          <mxGeometry x="30" width="150" height="30" as="geometry">
            <mxRectangle width="150" height="30" as="alternateBounds" />
          </mxGeometry>
        </mxCell>
        <mxCell id="5w2kK9chXB2fheSoxRfk-18" value="" style="shape=tableRow;horizontal=0;startSize=0;swimlaneHead=0;swimlaneBody=0;fillColor=none;collapsible=0;dropTarget=0;points=[[0,0.5],[1,0.5]];portConstraint=eastwest;top=0;left=0;right=0;bottom=0;" parent="5w2kK9chXB2fheSoxRfk-14" vertex="1">
          <mxGeometry y="60" width="180" height="30" as="geometry" />
        </mxCell>
        <mxCell id="5w2kK9chXB2fheSoxRfk-19" value="" style="shape=partialRectangle;connectable=0;fillColor=none;top=0;left=0;bottom=0;right=0;editable=1;overflow=hidden;whiteSpace=wrap;html=1;" parent="5w2kK9chXB2fheSoxRfk-18" vertex="1">
          <mxGeometry width="30" height="30" as="geometry">
            <mxRectangle width="30" height="30" as="alternateBounds" />
          </mxGeometry>
        </mxCell>
        <mxCell id="5w2kK9chXB2fheSoxRfk-20" value="name" style="shape=partialRectangle;connectable=0;fillColor=none;top=0;left=0;bottom=0;right=0;align=left;spacingLeft=6;overflow=hidden;whiteSpace=wrap;html=1;" parent="5w2kK9chXB2fheSoxRfk-18" vertex="1">
          <mxGeometry x="30" width="150" height="30" as="geometry">
            <mxRectangle width="150" height="30" as="alternateBounds" />
          </mxGeometry>
        </mxCell>
        <mxCell id="5w2kK9chXB2fheSoxRfk-21" value="" style="shape=tableRow;horizontal=0;startSize=0;swimlaneHead=0;swimlaneBody=0;fillColor=none;collapsible=0;dropTarget=0;points=[[0,0.5],[1,0.5]];portConstraint=eastwest;top=0;left=0;right=0;bottom=0;" parent="5w2kK9chXB2fheSoxRfk-14" vertex="1">
          <mxGeometry y="90" width="180" height="30" as="geometry" />
        </mxCell>
        <mxCell id="5w2kK9chXB2fheSoxRfk-22" value="" style="shape=partialRectangle;connectable=0;fillColor=none;top=0;left=0;bottom=0;right=0;editable=1;overflow=hidden;whiteSpace=wrap;html=1;" parent="5w2kK9chXB2fheSoxRfk-21" vertex="1">
          <mxGeometry width="30" height="30" as="geometry">
            <mxRectangle width="30" height="30" as="alternateBounds" />
          </mxGeometry>
        </mxCell>
        <mxCell id="5w2kK9chXB2fheSoxRfk-23" value="emergency_contact" style="shape=partialRectangle;connectable=0;fillColor=none;top=0;left=0;bottom=0;right=0;align=left;spacingLeft=6;overflow=hidden;whiteSpace=wrap;html=1;" parent="5w2kK9chXB2fheSoxRfk-21" vertex="1">
          <mxGeometry x="30" width="150" height="30" as="geometry">
            <mxRectangle width="150" height="30" as="alternateBounds" />
          </mxGeometry>
        </mxCell>
        <mxCell id="5w2kK9chXB2fheSoxRfk-24" value="" style="shape=tableRow;horizontal=0;startSize=0;swimlaneHead=0;swimlaneBody=0;fillColor=none;collapsible=0;dropTarget=0;points=[[0,0.5],[1,0.5]];portConstraint=eastwest;top=0;left=0;right=0;bottom=0;" parent="5w2kK9chXB2fheSoxRfk-14" vertex="1">
          <mxGeometry y="120" width="180" height="30" as="geometry" />
        </mxCell>
        <mxCell id="5w2kK9chXB2fheSoxRfk-25" value="" style="shape=partialRectangle;connectable=0;fillColor=none;top=0;left=0;bottom=0;right=0;editable=1;overflow=hidden;whiteSpace=wrap;html=1;" parent="5w2kK9chXB2fheSoxRfk-24" vertex="1">
          <mxGeometry width="30" height="30" as="geometry">
            <mxRectangle width="30" height="30" as="alternateBounds" />
          </mxGeometry>
        </mxCell>
        <mxCell id="5w2kK9chXB2fheSoxRfk-26" value="category" style="shape=partialRectangle;connectable=0;fillColor=none;top=0;left=0;bottom=0;right=0;align=left;spacingLeft=6;overflow=hidden;whiteSpace=wrap;html=1;" parent="5w2kK9chXB2fheSoxRfk-24" vertex="1">
          <mxGeometry x="30" width="150" height="30" as="geometry">
            <mxRectangle width="150" height="30" as="alternateBounds" />
          </mxGeometry>
        </mxCell>
        <mxCell id="KNieBPecmbiKmPNY75c0-7" style="shape=tableRow;horizontal=0;startSize=0;swimlaneHead=0;swimlaneBody=0;fillColor=none;collapsible=0;dropTarget=0;points=[[0,0.5],[1,0.5]];portConstraint=eastwest;top=0;left=0;right=0;bottom=0;" parent="5w2kK9chXB2fheSoxRfk-14" vertex="1">
          <mxGeometry y="150" width="180" height="30" as="geometry" />
        </mxCell>
        <mxCell id="KNieBPecmbiKmPNY75c0-8" style="shape=partialRectangle;connectable=0;fillColor=none;top=0;left=0;bottom=0;right=0;editable=1;overflow=hidden;whiteSpace=wrap;html=1;" parent="KNieBPecmbiKmPNY75c0-7" vertex="1">
          <mxGeometry width="30" height="30" as="geometry">
            <mxRectangle width="30" height="30" as="alternateBounds" />
          </mxGeometry>
        </mxCell>
        <mxCell id="KNieBPecmbiKmPNY75c0-9" value="description" style="shape=partialRectangle;connectable=0;fillColor=none;top=0;left=0;bottom=0;right=0;align=left;spacingLeft=6;overflow=hidden;whiteSpace=wrap;html=1;" parent="KNieBPecmbiKmPNY75c0-7" vertex="1">
          <mxGeometry x="30" width="150" height="30" as="geometry">
            <mxRectangle width="150" height="30" as="alternateBounds" />
          </mxGeometry>
        </mxCell>
        <mxCell id="KNieBPecmbiKmPNY75c0-20" style="shape=tableRow;horizontal=0;startSize=0;swimlaneHead=0;swimlaneBody=0;fillColor=none;collapsible=0;dropTarget=0;points=[[0,0.5],[1,0.5]];portConstraint=eastwest;top=0;left=0;right=0;bottom=0;" parent="5w2kK9chXB2fheSoxRfk-14" vertex="1">
          <mxGeometry y="180" width="180" height="30" as="geometry" />
        </mxCell>
        <mxCell id="KNieBPecmbiKmPNY75c0-21" style="shape=partialRectangle;connectable=0;fillColor=none;top=0;left=0;bottom=0;right=0;editable=1;overflow=hidden;whiteSpace=wrap;html=1;" parent="KNieBPecmbiKmPNY75c0-20" vertex="1">
          <mxGeometry width="30" height="30" as="geometry">
            <mxRectangle width="30" height="30" as="alternateBounds" />
          </mxGeometry>
        </mxCell>
        <mxCell id="KNieBPecmbiKmPNY75c0-22" value="when_occured_date" style="shape=partialRectangle;connectable=0;fillColor=none;top=0;left=0;bottom=0;right=0;align=left;spacingLeft=6;overflow=hidden;whiteSpace=wrap;html=1;" parent="KNieBPecmbiKmPNY75c0-20" vertex="1">
          <mxGeometry x="30" width="150" height="30" as="geometry">
            <mxRectangle width="150" height="30" as="alternateBounds" />
          </mxGeometry>
        </mxCell>
        <mxCell id="KNieBPecmbiKmPNY75c0-10" style="shape=tableRow;horizontal=0;startSize=0;swimlaneHead=0;swimlaneBody=0;fillColor=none;collapsible=0;dropTarget=0;points=[[0,0.5],[1,0.5]];portConstraint=eastwest;top=0;left=0;right=0;bottom=0;" parent="5w2kK9chXB2fheSoxRfk-14" vertex="1">
          <mxGeometry y="210" width="180" height="30" as="geometry" />
        </mxCell>
        <mxCell id="KNieBPecmbiKmPNY75c0-11" style="shape=partialRectangle;connectable=0;fillColor=none;top=0;left=0;bottom=0;right=0;editable=1;overflow=hidden;whiteSpace=wrap;html=1;" parent="KNieBPecmbiKmPNY75c0-10" vertex="1">
          <mxGeometry width="30" height="30" as="geometry">
            <mxRectangle width="30" height="30" as="alternateBounds" />
          </mxGeometry>
        </mxCell>
        <mxCell id="KNieBPecmbiKmPNY75c0-12" value="when_occured_time" style="shape=partialRectangle;connectable=0;fillColor=none;top=0;left=0;bottom=0;right=0;align=left;spacingLeft=6;overflow=hidden;whiteSpace=wrap;html=1;" parent="KNieBPecmbiKmPNY75c0-10" vertex="1">
          <mxGeometry x="30" width="150" height="30" as="geometry">
            <mxRectangle width="150" height="30" as="alternateBounds" />
          </mxGeometry>
        </mxCell>
        <mxCell id="KNieBPecmbiKmPNY75c0-13" style="shape=tableRow;horizontal=0;startSize=0;swimlaneHead=0;swimlaneBody=0;fillColor=none;collapsible=0;dropTarget=0;points=[[0,0.5],[1,0.5]];portConstraint=eastwest;top=0;left=0;right=0;bottom=0;" parent="5w2kK9chXB2fheSoxRfk-14" vertex="1">
          <mxGeometry y="240" width="180" height="30" as="geometry" />
        </mxCell>
        <mxCell id="KNieBPecmbiKmPNY75c0-14" style="shape=partialRectangle;connectable=0;fillColor=none;top=0;left=0;bottom=0;right=0;editable=1;overflow=hidden;whiteSpace=wrap;html=1;" parent="KNieBPecmbiKmPNY75c0-13" vertex="1">
          <mxGeometry width="30" height="30" as="geometry">
            <mxRectangle width="30" height="30" as="alternateBounds" />
          </mxGeometry>
        </mxCell>
        <mxCell id="KNieBPecmbiKmPNY75c0-15" value="landmark" style="shape=partialRectangle;connectable=0;fillColor=none;top=0;left=0;bottom=0;right=0;align=left;spacingLeft=6;overflow=hidden;whiteSpace=wrap;html=1;" parent="KNieBPecmbiKmPNY75c0-13" vertex="1">
          <mxGeometry x="30" width="150" height="30" as="geometry">
            <mxRectangle width="150" height="30" as="alternateBounds" />
          </mxGeometry>
        </mxCell>
        <mxCell id="ogQs9MKbzwKdtU0zCuGk-23" style="shape=tableRow;horizontal=0;startSize=0;swimlaneHead=0;swimlaneBody=0;fillColor=none;collapsible=0;dropTarget=0;points=[[0,0.5],[1,0.5]];portConstraint=eastwest;top=0;left=0;right=0;bottom=0;" parent="5w2kK9chXB2fheSoxRfk-14" vertex="1">
          <mxGeometry y="270" width="180" height="30" as="geometry" />
        </mxCell>
        <mxCell id="ogQs9MKbzwKdtU0zCuGk-24" style="shape=partialRectangle;connectable=0;fillColor=none;top=0;left=0;bottom=0;right=0;editable=1;overflow=hidden;whiteSpace=wrap;html=1;" parent="ogQs9MKbzwKdtU0zCuGk-23" vertex="1">
          <mxGeometry width="30" height="30" as="geometry">
            <mxRectangle width="30" height="30" as="alternateBounds" />
          </mxGeometry>
        </mxCell>
        <mxCell id="ogQs9MKbzwKdtU0zCuGk-25" value="FIR_REPORT_DATE" style="shape=partialRectangle;connectable=0;fillColor=none;top=0;left=0;bottom=0;right=0;align=left;spacingLeft=6;overflow=hidden;whiteSpace=wrap;html=1;" parent="ogQs9MKbzwKdtU0zCuGk-23" vertex="1">
          <mxGeometry x="30" width="150" height="30" as="geometry">
            <mxRectangle width="150" height="30" as="alternateBounds" />
          </mxGeometry>
        </mxCell>
        <mxCell id="ogQs9MKbzwKdtU0zCuGk-26" style="shape=tableRow;horizontal=0;startSize=0;swimlaneHead=0;swimlaneBody=0;fillColor=none;collapsible=0;dropTarget=0;points=[[0,0.5],[1,0.5]];portConstraint=eastwest;top=0;left=0;right=0;bottom=0;" parent="5w2kK9chXB2fheSoxRfk-14" vertex="1">
          <mxGeometry y="300" width="180" height="30" as="geometry" />
        </mxCell>
        <mxCell id="ogQs9MKbzwKdtU0zCuGk-27" style="shape=partialRectangle;connectable=0;fillColor=none;top=0;left=0;bottom=0;right=0;editable=1;overflow=hidden;whiteSpace=wrap;html=1;" parent="ogQs9MKbzwKdtU0zCuGk-26" vertex="1">
          <mxGeometry width="30" height="30" as="geometry">
            <mxRectangle width="30" height="30" as="alternateBounds" />
          </mxGeometry>
        </mxCell>
        <mxCell id="ogQs9MKbzwKdtU0zCuGk-28" value="FIR_status" style="shape=partialRectangle;connectable=0;fillColor=none;top=0;left=0;bottom=0;right=0;align=left;spacingLeft=6;overflow=hidden;whiteSpace=wrap;html=1;" parent="ogQs9MKbzwKdtU0zCuGk-26" vertex="1">
          <mxGeometry x="30" width="150" height="30" as="geometry">
            <mxRectangle width="150" height="30" as="alternateBounds" />
          </mxGeometry>
        </mxCell>
        <mxCell id="fQnaNI6id1OZZP_4K0eR-240" style="shape=tableRow;horizontal=0;startSize=0;swimlaneHead=0;swimlaneBody=0;fillColor=none;collapsible=0;dropTarget=0;points=[[0,0.5],[1,0.5]];portConstraint=eastwest;top=0;left=0;right=0;bottom=0;" vertex="1" parent="5w2kK9chXB2fheSoxRfk-14">
          <mxGeometry y="330" width="180" height="30" as="geometry" />
        </mxCell>
        <mxCell id="fQnaNI6id1OZZP_4K0eR-241" style="shape=partialRectangle;connectable=0;fillColor=none;top=0;left=0;bottom=0;right=0;editable=1;overflow=hidden;whiteSpace=wrap;html=1;" vertex="1" parent="fQnaNI6id1OZZP_4K0eR-240">
          <mxGeometry width="30" height="30" as="geometry">
            <mxRectangle width="30" height="30" as="alternateBounds" />
          </mxGeometry>
        </mxCell>
        <mxCell id="fQnaNI6id1OZZP_4K0eR-242" value="&lt;span style=&quot;text-align: center;&quot;&gt;where_occured_city&lt;/span&gt;" style="shape=partialRectangle;connectable=0;fillColor=none;top=0;left=0;bottom=0;right=0;align=left;spacingLeft=6;overflow=hidden;whiteSpace=wrap;html=1;" vertex="1" parent="fQnaNI6id1OZZP_4K0eR-240">
          <mxGeometry x="30" width="150" height="30" as="geometry">
            <mxRectangle width="150" height="30" as="alternateBounds" />
          </mxGeometry>
        </mxCell>
        <mxCell id="fQnaNI6id1OZZP_4K0eR-243" style="shape=tableRow;horizontal=0;startSize=0;swimlaneHead=0;swimlaneBody=0;fillColor=none;collapsible=0;dropTarget=0;points=[[0,0.5],[1,0.5]];portConstraint=eastwest;top=0;left=0;right=0;bottom=0;" vertex="1" parent="5w2kK9chXB2fheSoxRfk-14">
          <mxGeometry y="360" width="180" height="30" as="geometry" />
        </mxCell>
        <mxCell id="fQnaNI6id1OZZP_4K0eR-244" style="shape=partialRectangle;connectable=0;fillColor=none;top=0;left=0;bottom=0;right=0;editable=1;overflow=hidden;whiteSpace=wrap;html=1;" vertex="1" parent="fQnaNI6id1OZZP_4K0eR-243">
          <mxGeometry width="30" height="30" as="geometry">
            <mxRectangle width="30" height="30" as="alternateBounds" />
          </mxGeometry>
        </mxCell>
        <mxCell id="fQnaNI6id1OZZP_4K0eR-245" value="&lt;span style=&quot;text-align: center;&quot;&gt;where_occured_state&lt;/span&gt;" style="shape=partialRectangle;connectable=0;fillColor=none;top=0;left=0;bottom=0;right=0;align=left;spacingLeft=6;overflow=hidden;whiteSpace=wrap;html=1;" vertex="1" parent="fQnaNI6id1OZZP_4K0eR-243">
          <mxGeometry x="30" width="150" height="30" as="geometry">
            <mxRectangle width="150" height="30" as="alternateBounds" />
          </mxGeometry>
        </mxCell>
        <mxCell id="5w2kK9chXB2fheSoxRfk-40" value="admin_db" style="shape=table;startSize=30;container=1;collapsible=1;childLayout=tableLayout;fixedRows=1;rowLines=0;fontStyle=1;align=center;resizeLast=1;html=1;" parent="1" vertex="1">
          <mxGeometry x="1080" y="660" width="180" height="180" as="geometry" />
        </mxCell>
        <mxCell id="5w2kK9chXB2fheSoxRfk-41" value="" style="shape=tableRow;horizontal=0;startSize=0;swimlaneHead=0;swimlaneBody=0;fillColor=none;collapsible=0;dropTarget=0;points=[[0,0.5],[1,0.5]];portConstraint=eastwest;top=0;left=0;right=0;bottom=1;" parent="5w2kK9chXB2fheSoxRfk-40" vertex="1">
          <mxGeometry y="30" width="180" height="30" as="geometry" />
        </mxCell>
        <mxCell id="5w2kK9chXB2fheSoxRfk-42" value="PK" style="shape=partialRectangle;connectable=0;fillColor=none;top=0;left=0;bottom=0;right=0;fontStyle=1;overflow=hidden;whiteSpace=wrap;html=1;" parent="5w2kK9chXB2fheSoxRfk-41" vertex="1">
          <mxGeometry width="30" height="30" as="geometry">
            <mxRectangle width="30" height="30" as="alternateBounds" />
          </mxGeometry>
        </mxCell>
        <mxCell id="5w2kK9chXB2fheSoxRfk-43" value="admin_id" style="shape=partialRectangle;connectable=0;fillColor=none;top=0;left=0;bottom=0;right=0;align=left;spacingLeft=6;fontStyle=5;overflow=hidden;whiteSpace=wrap;html=1;" parent="5w2kK9chXB2fheSoxRfk-41" vertex="1">
          <mxGeometry x="30" width="150" height="30" as="geometry">
            <mxRectangle width="150" height="30" as="alternateBounds" />
          </mxGeometry>
        </mxCell>
        <mxCell id="5w2kK9chXB2fheSoxRfk-44" value="" style="shape=tableRow;horizontal=0;startSize=0;swimlaneHead=0;swimlaneBody=0;fillColor=none;collapsible=0;dropTarget=0;points=[[0,0.5],[1,0.5]];portConstraint=eastwest;top=0;left=0;right=0;bottom=0;" parent="5w2kK9chXB2fheSoxRfk-40" vertex="1">
          <mxGeometry y="60" width="180" height="30" as="geometry" />
        </mxCell>
        <mxCell id="5w2kK9chXB2fheSoxRfk-45" value="" style="shape=partialRectangle;connectable=0;fillColor=none;top=0;left=0;bottom=0;right=0;editable=1;overflow=hidden;whiteSpace=wrap;html=1;" parent="5w2kK9chXB2fheSoxRfk-44" vertex="1">
          <mxGeometry width="30" height="30" as="geometry">
            <mxRectangle width="30" height="30" as="alternateBounds" />
          </mxGeometry>
        </mxCell>
        <mxCell id="5w2kK9chXB2fheSoxRfk-46" value="admin_name" style="shape=partialRectangle;connectable=0;fillColor=none;top=0;left=0;bottom=0;right=0;align=left;spacingLeft=6;overflow=hidden;whiteSpace=wrap;html=1;" parent="5w2kK9chXB2fheSoxRfk-44" vertex="1">
          <mxGeometry x="30" width="150" height="30" as="geometry">
            <mxRectangle width="150" height="30" as="alternateBounds" />
          </mxGeometry>
        </mxCell>
        <mxCell id="5w2kK9chXB2fheSoxRfk-47" value="" style="shape=tableRow;horizontal=0;startSize=0;swimlaneHead=0;swimlaneBody=0;fillColor=none;collapsible=0;dropTarget=0;points=[[0,0.5],[1,0.5]];portConstraint=eastwest;top=0;left=0;right=0;bottom=0;" parent="5w2kK9chXB2fheSoxRfk-40" vertex="1">
          <mxGeometry y="90" width="180" height="30" as="geometry" />
        </mxCell>
        <mxCell id="5w2kK9chXB2fheSoxRfk-48" value="" style="shape=partialRectangle;connectable=0;fillColor=none;top=0;left=0;bottom=0;right=0;editable=1;overflow=hidden;whiteSpace=wrap;html=1;" parent="5w2kK9chXB2fheSoxRfk-47" vertex="1">
          <mxGeometry width="30" height="30" as="geometry">
            <mxRectangle width="30" height="30" as="alternateBounds" />
          </mxGeometry>
        </mxCell>
        <mxCell id="5w2kK9chXB2fheSoxRfk-49" value="admin_email" style="shape=partialRectangle;connectable=0;fillColor=none;top=0;left=0;bottom=0;right=0;align=left;spacingLeft=6;overflow=hidden;whiteSpace=wrap;html=1;" parent="5w2kK9chXB2fheSoxRfk-47" vertex="1">
          <mxGeometry x="30" width="150" height="30" as="geometry">
            <mxRectangle width="150" height="30" as="alternateBounds" />
          </mxGeometry>
        </mxCell>
        <mxCell id="ogQs9MKbzwKdtU0zCuGk-29" style="shape=tableRow;horizontal=0;startSize=0;swimlaneHead=0;swimlaneBody=0;fillColor=none;collapsible=0;dropTarget=0;points=[[0,0.5],[1,0.5]];portConstraint=eastwest;top=0;left=0;right=0;bottom=0;" parent="5w2kK9chXB2fheSoxRfk-40" vertex="1">
          <mxGeometry y="120" width="180" height="30" as="geometry" />
        </mxCell>
        <mxCell id="ogQs9MKbzwKdtU0zCuGk-30" style="shape=partialRectangle;connectable=0;fillColor=none;top=0;left=0;bottom=0;right=0;editable=1;overflow=hidden;whiteSpace=wrap;html=1;" parent="ogQs9MKbzwKdtU0zCuGk-29" vertex="1">
          <mxGeometry width="30" height="30" as="geometry">
            <mxRectangle width="30" height="30" as="alternateBounds" />
          </mxGeometry>
        </mxCell>
        <mxCell id="ogQs9MKbzwKdtU0zCuGk-31" value="admin_password" style="shape=partialRectangle;connectable=0;fillColor=none;top=0;left=0;bottom=0;right=0;align=left;spacingLeft=6;overflow=hidden;whiteSpace=wrap;html=1;" parent="ogQs9MKbzwKdtU0zCuGk-29" vertex="1">
          <mxGeometry x="30" width="150" height="30" as="geometry">
            <mxRectangle width="150" height="30" as="alternateBounds" />
          </mxGeometry>
        </mxCell>
        <mxCell id="fQnaNI6id1OZZP_4K0eR-247" style="shape=tableRow;horizontal=0;startSize=0;swimlaneHead=0;swimlaneBody=0;fillColor=none;collapsible=0;dropTarget=0;points=[[0,0.5],[1,0.5]];portConstraint=eastwest;top=0;left=0;right=0;bottom=0;" vertex="1" parent="5w2kK9chXB2fheSoxRfk-40">
          <mxGeometry y="150" width="180" height="30" as="geometry" />
        </mxCell>
        <mxCell id="fQnaNI6id1OZZP_4K0eR-248" style="shape=partialRectangle;connectable=0;fillColor=none;top=0;left=0;bottom=0;right=0;editable=1;overflow=hidden;whiteSpace=wrap;html=1;" vertex="1" parent="fQnaNI6id1OZZP_4K0eR-247">
          <mxGeometry width="30" height="30" as="geometry">
            <mxRectangle width="30" height="30" as="alternateBounds" />
          </mxGeometry>
        </mxCell>
        <mxCell id="fQnaNI6id1OZZP_4K0eR-249" value="&lt;span style=&quot;text-align: center;&quot;&gt;registration_date&lt;/span&gt;" style="shape=partialRectangle;connectable=0;fillColor=none;top=0;left=0;bottom=0;right=0;align=left;spacingLeft=6;overflow=hidden;whiteSpace=wrap;html=1;" vertex="1" parent="fQnaNI6id1OZZP_4K0eR-247">
          <mxGeometry x="30" width="150" height="30" as="geometry">
            <mxRectangle width="150" height="30" as="alternateBounds" />
          </mxGeometry>
        </mxCell>
        <mxCell id="5w2kK9chXB2fheSoxRfk-80" value="after_login_FIR" style="shape=table;startSize=30;container=1;collapsible=1;childLayout=tableLayout;fixedRows=1;rowLines=0;fontStyle=1;align=center;resizeLast=1;html=1;" parent="1" vertex="1">
          <mxGeometry x="560" y="660" width="200" height="420" as="geometry" />
        </mxCell>
        <mxCell id="5w2kK9chXB2fheSoxRfk-81" value="" style="shape=tableRow;horizontal=0;startSize=0;swimlaneHead=0;swimlaneBody=0;fillColor=none;collapsible=0;dropTarget=0;points=[[0,0.5],[1,0.5]];portConstraint=eastwest;top=0;left=0;right=0;bottom=1;" parent="5w2kK9chXB2fheSoxRfk-80" vertex="1">
          <mxGeometry y="30" width="200" height="30" as="geometry" />
        </mxCell>
        <mxCell id="5w2kK9chXB2fheSoxRfk-82" value="PK" style="shape=partialRectangle;connectable=0;fillColor=none;top=0;left=0;bottom=0;right=0;fontStyle=1;overflow=hidden;whiteSpace=wrap;html=1;" parent="5w2kK9chXB2fheSoxRfk-81" vertex="1">
          <mxGeometry width="30" height="30" as="geometry">
            <mxRectangle width="30" height="30" as="alternateBounds" />
          </mxGeometry>
        </mxCell>
        <mxCell id="5w2kK9chXB2fheSoxRfk-83" value="FIR_id" style="shape=partialRectangle;connectable=0;fillColor=none;top=0;left=0;bottom=0;right=0;align=left;spacingLeft=6;fontStyle=5;overflow=hidden;whiteSpace=wrap;html=1;" parent="5w2kK9chXB2fheSoxRfk-81" vertex="1">
          <mxGeometry x="30" width="170" height="30" as="geometry">
            <mxRectangle width="170" height="30" as="alternateBounds" />
          </mxGeometry>
        </mxCell>
        <mxCell id="5w2kK9chXB2fheSoxRfk-93" value="" style="shape=tableRow;horizontal=0;startSize=0;swimlaneHead=0;swimlaneBody=0;fillColor=none;collapsible=0;dropTarget=0;points=[[0,0.5],[1,0.5]];portConstraint=eastwest;top=0;left=0;right=0;bottom=0;" parent="5w2kK9chXB2fheSoxRfk-80" vertex="1">
          <mxGeometry y="60" width="200" height="30" as="geometry" />
        </mxCell>
        <mxCell id="5w2kK9chXB2fheSoxRfk-94" value="FK" style="shape=partialRectangle;connectable=0;fillColor=none;top=0;left=0;bottom=0;right=0;editable=1;overflow=hidden;whiteSpace=wrap;html=1;" parent="5w2kK9chXB2fheSoxRfk-93" vertex="1">
          <mxGeometry width="30" height="30" as="geometry">
            <mxRectangle width="30" height="30" as="alternateBounds" />
          </mxGeometry>
        </mxCell>
        <mxCell id="5w2kK9chXB2fheSoxRfk-95" value="user_email" style="shape=partialRectangle;connectable=0;fillColor=none;top=0;left=0;bottom=0;right=0;align=left;spacingLeft=6;overflow=hidden;whiteSpace=wrap;html=1;" parent="5w2kK9chXB2fheSoxRfk-93" vertex="1">
          <mxGeometry x="30" width="170" height="30" as="geometry">
            <mxRectangle width="170" height="30" as="alternateBounds" />
          </mxGeometry>
        </mxCell>
        <mxCell id="ogQs9MKbzwKdtU0zCuGk-14" style="shape=tableRow;horizontal=0;startSize=0;swimlaneHead=0;swimlaneBody=0;fillColor=none;collapsible=0;dropTarget=0;points=[[0,0.5],[1,0.5]];portConstraint=eastwest;top=0;left=0;right=0;bottom=0;" parent="5w2kK9chXB2fheSoxRfk-80" vertex="1">
          <mxGeometry y="90" width="200" height="30" as="geometry" />
        </mxCell>
        <mxCell id="ogQs9MKbzwKdtU0zCuGk-15" style="shape=partialRectangle;connectable=0;fillColor=none;top=0;left=0;bottom=0;right=0;editable=1;overflow=hidden;whiteSpace=wrap;html=1;" parent="ogQs9MKbzwKdtU0zCuGk-14" vertex="1">
          <mxGeometry width="30" height="30" as="geometry">
            <mxRectangle width="30" height="30" as="alternateBounds" />
          </mxGeometry>
        </mxCell>
        <mxCell id="ogQs9MKbzwKdtU0zCuGk-16" value="name" style="shape=partialRectangle;connectable=0;fillColor=none;top=0;left=0;bottom=0;right=0;align=left;spacingLeft=6;overflow=hidden;whiteSpace=wrap;html=1;" parent="ogQs9MKbzwKdtU0zCuGk-14" vertex="1">
          <mxGeometry x="30" width="170" height="30" as="geometry">
            <mxRectangle width="170" height="30" as="alternateBounds" />
          </mxGeometry>
        </mxCell>
        <mxCell id="ogQs9MKbzwKdtU0zCuGk-17" style="shape=tableRow;horizontal=0;startSize=0;swimlaneHead=0;swimlaneBody=0;fillColor=none;collapsible=0;dropTarget=0;points=[[0,0.5],[1,0.5]];portConstraint=eastwest;top=0;left=0;right=0;bottom=0;" parent="5w2kK9chXB2fheSoxRfk-80" vertex="1">
          <mxGeometry y="120" width="200" height="30" as="geometry" />
        </mxCell>
        <mxCell id="ogQs9MKbzwKdtU0zCuGk-18" style="shape=partialRectangle;connectable=0;fillColor=none;top=0;left=0;bottom=0;right=0;editable=1;overflow=hidden;whiteSpace=wrap;html=1;" parent="ogQs9MKbzwKdtU0zCuGk-17" vertex="1">
          <mxGeometry width="30" height="30" as="geometry">
            <mxRectangle width="30" height="30" as="alternateBounds" />
          </mxGeometry>
        </mxCell>
        <mxCell id="ogQs9MKbzwKdtU0zCuGk-19" value="emergency_contact" style="shape=partialRectangle;connectable=0;fillColor=none;top=0;left=0;bottom=0;right=0;align=left;spacingLeft=6;overflow=hidden;whiteSpace=wrap;html=1;" parent="ogQs9MKbzwKdtU0zCuGk-17" vertex="1">
          <mxGeometry x="30" width="170" height="30" as="geometry">
            <mxRectangle width="170" height="30" as="alternateBounds" />
          </mxGeometry>
        </mxCell>
        <mxCell id="5w2kK9chXB2fheSoxRfk-84" value="" style="shape=tableRow;horizontal=0;startSize=0;swimlaneHead=0;swimlaneBody=0;fillColor=none;collapsible=0;dropTarget=0;points=[[0,0.5],[1,0.5]];portConstraint=eastwest;top=0;left=0;right=0;bottom=0;" parent="5w2kK9chXB2fheSoxRfk-80" vertex="1">
          <mxGeometry y="150" width="200" height="30" as="geometry" />
        </mxCell>
        <mxCell id="5w2kK9chXB2fheSoxRfk-85" value="" style="shape=partialRectangle;connectable=0;fillColor=none;top=0;left=0;bottom=0;right=0;editable=1;overflow=hidden;whiteSpace=wrap;html=1;" parent="5w2kK9chXB2fheSoxRfk-84" vertex="1">
          <mxGeometry width="30" height="30" as="geometry">
            <mxRectangle width="30" height="30" as="alternateBounds" />
          </mxGeometry>
        </mxCell>
        <mxCell id="5w2kK9chXB2fheSoxRfk-86" value="category" style="shape=partialRectangle;connectable=0;fillColor=none;top=0;left=0;bottom=0;right=0;align=left;spacingLeft=6;overflow=hidden;whiteSpace=wrap;html=1;" parent="5w2kK9chXB2fheSoxRfk-84" vertex="1">
          <mxGeometry x="30" width="170" height="30" as="geometry">
            <mxRectangle width="170" height="30" as="alternateBounds" />
          </mxGeometry>
        </mxCell>
        <mxCell id="5w2kK9chXB2fheSoxRfk-87" value="" style="shape=tableRow;horizontal=0;startSize=0;swimlaneHead=0;swimlaneBody=0;fillColor=none;collapsible=0;dropTarget=0;points=[[0,0.5],[1,0.5]];portConstraint=eastwest;top=0;left=0;right=0;bottom=0;" parent="5w2kK9chXB2fheSoxRfk-80" vertex="1">
          <mxGeometry y="180" width="200" height="30" as="geometry" />
        </mxCell>
        <mxCell id="5w2kK9chXB2fheSoxRfk-88" value="" style="shape=partialRectangle;connectable=0;fillColor=none;top=0;left=0;bottom=0;right=0;editable=1;overflow=hidden;whiteSpace=wrap;html=1;" parent="5w2kK9chXB2fheSoxRfk-87" vertex="1">
          <mxGeometry width="30" height="30" as="geometry">
            <mxRectangle width="30" height="30" as="alternateBounds" />
          </mxGeometry>
        </mxCell>
        <mxCell id="5w2kK9chXB2fheSoxRfk-89" value="Description" style="shape=partialRectangle;connectable=0;fillColor=none;top=0;left=0;bottom=0;right=0;align=left;spacingLeft=6;overflow=hidden;whiteSpace=wrap;html=1;" parent="5w2kK9chXB2fheSoxRfk-87" vertex="1">
          <mxGeometry x="30" width="170" height="30" as="geometry">
            <mxRectangle width="170" height="30" as="alternateBounds" />
          </mxGeometry>
        </mxCell>
        <mxCell id="KNieBPecmbiKmPNY75c0-23" style="shape=tableRow;horizontal=0;startSize=0;swimlaneHead=0;swimlaneBody=0;fillColor=none;collapsible=0;dropTarget=0;points=[[0,0.5],[1,0.5]];portConstraint=eastwest;top=0;left=0;right=0;bottom=0;" parent="5w2kK9chXB2fheSoxRfk-80" vertex="1">
          <mxGeometry y="210" width="200" height="30" as="geometry" />
        </mxCell>
        <mxCell id="KNieBPecmbiKmPNY75c0-24" style="shape=partialRectangle;connectable=0;fillColor=none;top=0;left=0;bottom=0;right=0;editable=1;overflow=hidden;whiteSpace=wrap;html=1;" parent="KNieBPecmbiKmPNY75c0-23" vertex="1">
          <mxGeometry width="30" height="30" as="geometry">
            <mxRectangle width="30" height="30" as="alternateBounds" />
          </mxGeometry>
        </mxCell>
        <mxCell id="KNieBPecmbiKmPNY75c0-25" value="when_occured_date" style="shape=partialRectangle;connectable=0;fillColor=none;top=0;left=0;bottom=0;right=0;align=left;spacingLeft=6;overflow=hidden;whiteSpace=wrap;html=1;" parent="KNieBPecmbiKmPNY75c0-23" vertex="1">
          <mxGeometry x="30" width="170" height="30" as="geometry">
            <mxRectangle width="170" height="30" as="alternateBounds" />
          </mxGeometry>
        </mxCell>
        <mxCell id="5w2kK9chXB2fheSoxRfk-90" value="" style="shape=tableRow;horizontal=0;startSize=0;swimlaneHead=0;swimlaneBody=0;fillColor=none;collapsible=0;dropTarget=0;points=[[0,0.5],[1,0.5]];portConstraint=eastwest;top=0;left=0;right=0;bottom=0;" parent="5w2kK9chXB2fheSoxRfk-80" vertex="1">
          <mxGeometry y="240" width="200" height="30" as="geometry" />
        </mxCell>
        <mxCell id="5w2kK9chXB2fheSoxRfk-91" value="" style="shape=partialRectangle;connectable=0;fillColor=none;top=0;left=0;bottom=0;right=0;editable=1;overflow=hidden;whiteSpace=wrap;html=1;" parent="5w2kK9chXB2fheSoxRfk-90" vertex="1">
          <mxGeometry width="30" height="30" as="geometry">
            <mxRectangle width="30" height="30" as="alternateBounds" />
          </mxGeometry>
        </mxCell>
        <mxCell id="5w2kK9chXB2fheSoxRfk-92" value="when_occured_time" style="shape=partialRectangle;connectable=0;fillColor=none;top=0;left=0;bottom=0;right=0;align=left;spacingLeft=6;overflow=hidden;whiteSpace=wrap;html=1;" parent="5w2kK9chXB2fheSoxRfk-90" vertex="1">
          <mxGeometry x="30" width="170" height="30" as="geometry">
            <mxRectangle width="170" height="30" as="alternateBounds" />
          </mxGeometry>
        </mxCell>
        <mxCell id="KNieBPecmbiKmPNY75c0-1" style="shape=tableRow;horizontal=0;startSize=0;swimlaneHead=0;swimlaneBody=0;fillColor=none;collapsible=0;dropTarget=0;points=[[0,0.5],[1,0.5]];portConstraint=eastwest;top=0;left=0;right=0;bottom=0;" parent="5w2kK9chXB2fheSoxRfk-80" vertex="1">
          <mxGeometry y="270" width="200" height="30" as="geometry" />
        </mxCell>
        <mxCell id="KNieBPecmbiKmPNY75c0-2" style="shape=partialRectangle;connectable=0;fillColor=none;top=0;left=0;bottom=0;right=0;editable=1;overflow=hidden;whiteSpace=wrap;html=1;" parent="KNieBPecmbiKmPNY75c0-1" vertex="1">
          <mxGeometry width="30" height="30" as="geometry">
            <mxRectangle width="30" height="30" as="alternateBounds" />
          </mxGeometry>
        </mxCell>
        <mxCell id="KNieBPecmbiKmPNY75c0-3" value="landmark" style="shape=partialRectangle;connectable=0;fillColor=none;top=0;left=0;bottom=0;right=0;align=left;spacingLeft=6;overflow=hidden;whiteSpace=wrap;html=1;" parent="KNieBPecmbiKmPNY75c0-1" vertex="1">
          <mxGeometry x="30" width="170" height="30" as="geometry">
            <mxRectangle width="170" height="30" as="alternateBounds" />
          </mxGeometry>
        </mxCell>
        <mxCell id="KNieBPecmbiKmPNY75c0-4" style="shape=tableRow;horizontal=0;startSize=0;swimlaneHead=0;swimlaneBody=0;fillColor=none;collapsible=0;dropTarget=0;points=[[0,0.5],[1,0.5]];portConstraint=eastwest;top=0;left=0;right=0;bottom=0;" parent="5w2kK9chXB2fheSoxRfk-80" vertex="1">
          <mxGeometry y="300" width="200" height="30" as="geometry" />
        </mxCell>
        <mxCell id="KNieBPecmbiKmPNY75c0-5" style="shape=partialRectangle;connectable=0;fillColor=none;top=0;left=0;bottom=0;right=0;editable=1;overflow=hidden;whiteSpace=wrap;html=1;" parent="KNieBPecmbiKmPNY75c0-4" vertex="1">
          <mxGeometry width="30" height="30" as="geometry">
            <mxRectangle width="30" height="30" as="alternateBounds" />
          </mxGeometry>
        </mxCell>
        <mxCell id="KNieBPecmbiKmPNY75c0-6" value="FIR_status" style="shape=partialRectangle;connectable=0;fillColor=none;top=0;left=0;bottom=0;right=0;align=left;spacingLeft=6;overflow=hidden;whiteSpace=wrap;html=1;" parent="KNieBPecmbiKmPNY75c0-4" vertex="1">
          <mxGeometry x="30" width="170" height="30" as="geometry">
            <mxRectangle width="170" height="30" as="alternateBounds" />
          </mxGeometry>
        </mxCell>
        <mxCell id="ogQs9MKbzwKdtU0zCuGk-20" style="shape=tableRow;horizontal=0;startSize=0;swimlaneHead=0;swimlaneBody=0;fillColor=none;collapsible=0;dropTarget=0;points=[[0,0.5],[1,0.5]];portConstraint=eastwest;top=0;left=0;right=0;bottom=0;" parent="5w2kK9chXB2fheSoxRfk-80" vertex="1">
          <mxGeometry y="330" width="200" height="30" as="geometry" />
        </mxCell>
        <mxCell id="ogQs9MKbzwKdtU0zCuGk-21" style="shape=partialRectangle;connectable=0;fillColor=none;top=0;left=0;bottom=0;right=0;editable=1;overflow=hidden;whiteSpace=wrap;html=1;" parent="ogQs9MKbzwKdtU0zCuGk-20" vertex="1">
          <mxGeometry width="30" height="30" as="geometry">
            <mxRectangle width="30" height="30" as="alternateBounds" />
          </mxGeometry>
        </mxCell>
        <mxCell id="ogQs9MKbzwKdtU0zCuGk-22" value="FIR_REPORT_DATE" style="shape=partialRectangle;connectable=0;fillColor=none;top=0;left=0;bottom=0;right=0;align=left;spacingLeft=6;overflow=hidden;whiteSpace=wrap;html=1;" parent="ogQs9MKbzwKdtU0zCuGk-20" vertex="1">
          <mxGeometry x="30" width="170" height="30" as="geometry">
            <mxRectangle width="170" height="30" as="alternateBounds" />
          </mxGeometry>
        </mxCell>
        <mxCell id="fQnaNI6id1OZZP_4K0eR-234" style="shape=tableRow;horizontal=0;startSize=0;swimlaneHead=0;swimlaneBody=0;fillColor=none;collapsible=0;dropTarget=0;points=[[0,0.5],[1,0.5]];portConstraint=eastwest;top=0;left=0;right=0;bottom=0;" vertex="1" parent="5w2kK9chXB2fheSoxRfk-80">
          <mxGeometry y="360" width="200" height="30" as="geometry" />
        </mxCell>
        <mxCell id="fQnaNI6id1OZZP_4K0eR-235" style="shape=partialRectangle;connectable=0;fillColor=none;top=0;left=0;bottom=0;right=0;editable=1;overflow=hidden;whiteSpace=wrap;html=1;" vertex="1" parent="fQnaNI6id1OZZP_4K0eR-234">
          <mxGeometry width="30" height="30" as="geometry">
            <mxRectangle width="30" height="30" as="alternateBounds" />
          </mxGeometry>
        </mxCell>
        <mxCell id="fQnaNI6id1OZZP_4K0eR-236" value="&lt;span style=&quot;text-align: center;&quot;&gt;where_occured_city&lt;/span&gt;" style="shape=partialRectangle;connectable=0;fillColor=none;top=0;left=0;bottom=0;right=0;align=left;spacingLeft=6;overflow=hidden;whiteSpace=wrap;html=1;" vertex="1" parent="fQnaNI6id1OZZP_4K0eR-234">
          <mxGeometry x="30" width="170" height="30" as="geometry">
            <mxRectangle width="170" height="30" as="alternateBounds" />
          </mxGeometry>
        </mxCell>
        <mxCell id="fQnaNI6id1OZZP_4K0eR-237" style="shape=tableRow;horizontal=0;startSize=0;swimlaneHead=0;swimlaneBody=0;fillColor=none;collapsible=0;dropTarget=0;points=[[0,0.5],[1,0.5]];portConstraint=eastwest;top=0;left=0;right=0;bottom=0;" vertex="1" parent="5w2kK9chXB2fheSoxRfk-80">
          <mxGeometry y="390" width="200" height="30" as="geometry" />
        </mxCell>
        <mxCell id="fQnaNI6id1OZZP_4K0eR-238" style="shape=partialRectangle;connectable=0;fillColor=none;top=0;left=0;bottom=0;right=0;editable=1;overflow=hidden;whiteSpace=wrap;html=1;" vertex="1" parent="fQnaNI6id1OZZP_4K0eR-237">
          <mxGeometry width="30" height="30" as="geometry">
            <mxRectangle width="30" height="30" as="alternateBounds" />
          </mxGeometry>
        </mxCell>
        <mxCell id="fQnaNI6id1OZZP_4K0eR-239" value="&lt;span style=&quot;text-align: center;&quot;&gt;where_occured_state&lt;/span&gt;" style="shape=partialRectangle;connectable=0;fillColor=none;top=0;left=0;bottom=0;right=0;align=left;spacingLeft=6;overflow=hidden;whiteSpace=wrap;html=1;" vertex="1" parent="fQnaNI6id1OZZP_4K0eR-237">
          <mxGeometry x="30" width="170" height="30" as="geometry">
            <mxRectangle width="170" height="30" as="alternateBounds" />
          </mxGeometry>
        </mxCell>
        <mxCell id="5w2kK9chXB2fheSoxRfk-96" style="edgeStyle=orthogonalEdgeStyle;rounded=0;orthogonalLoop=1;jettySize=auto;html=1;entryX=1;entryY=0.5;entryDx=0;entryDy=0;" parent="1" source="5w2kK9chXB2fheSoxRfk-93" target="5w2kK9chXB2fheSoxRfk-77" edge="1">
          <mxGeometry relative="1" as="geometry" />
        </mxCell>
        <mxCell id="KNieBPecmbiKmPNY75c0-27" value="this is the databse where only the developer will have the access. They will set the username and password for the admins and give it to the police department.&lt;br&gt;when login into the admin panel they have to use those login creds that have been provided to the police department by the developers. Once they are in , they can see all the FIR_records / Quick FIR_records with ease. !!!&amp;nbsp;&amp;nbsp;&lt;br&gt;so in case if some unknown person enters into the database, the developer can easily remove the access or change the login creds . This will prevent the unauthorised access.&lt;br&gt;later if the police department ask for the admin_db permission then the developer can give the access to them, and the rest will be done by them ." style="text;html=1;strokeColor=none;fillColor=none;align=center;verticalAlign=middle;whiteSpace=wrap;rounded=0;" parent="1" vertex="1">
          <mxGeometry x="2030" y="670" width="490" height="200" as="geometry" />
        </mxCell>
        <mxCell id="KNieBPecmbiKmPNY75c0-30" value="&lt;font face=&quot;Comic Sans MS&quot; style=&quot;font-size: 36px;&quot;&gt;&lt;b&gt;e-Crime Report Hub: database design&lt;/b&gt;&lt;/font&gt;" style="text;html=1;strokeColor=none;fillColor=none;align=center;verticalAlign=middle;whiteSpace=wrap;rounded=0;" parent="1" vertex="1">
          <mxGeometry x="260" y="530" width="930" height="30" as="geometry" />
        </mxCell>
        <mxCell id="KNieBPecmbiKmPNY75c0-31" value="&lt;font style=&quot;font-size: 24px;&quot;&gt;users_table&amp;nbsp;&lt;/font&gt;" style="text;html=1;strokeColor=none;fillColor=none;align=center;verticalAlign=middle;whiteSpace=wrap;rounded=0;" parent="1" vertex="1">
          <mxGeometry x="251" y="620" width="120" height="30" as="geometry" />
        </mxCell>
        <mxCell id="KNieBPecmbiKmPNY75c0-32" value="&lt;font style=&quot;font-size: 24px;&quot;&gt;Quick_FIR_table&amp;nbsp;&lt;/font&gt;" style="text;html=1;strokeColor=none;fillColor=none;align=center;verticalAlign=middle;whiteSpace=wrap;rounded=0;" parent="1" vertex="1">
          <mxGeometry x="880" y="615" width="120" height="25" as="geometry" />
        </mxCell>
        <mxCell id="KNieBPecmbiKmPNY75c0-33" value="&lt;font style=&quot;font-size: 24px;&quot;&gt;After_login_FIR_table&amp;nbsp;&lt;/font&gt;" style="text;html=1;strokeColor=none;fillColor=none;align=center;verticalAlign=middle;whiteSpace=wrap;rounded=0;" parent="1" vertex="1">
          <mxGeometry x="600" y="615" width="120" height="30" as="geometry" />
        </mxCell>
        <mxCell id="dX6lLSPPIBnTT4lIkeUK-115" style="edgeStyle=orthogonalEdgeStyle;rounded=0;orthogonalLoop=1;jettySize=auto;html=1;entryX=0.5;entryY=0;entryDx=0;entryDy=0;" parent="1" source="dX6lLSPPIBnTT4lIkeUK-1" target="dX6lLSPPIBnTT4lIkeUK-91" edge="1">
          <mxGeometry relative="1" as="geometry" />
        </mxCell>
        <mxCell id="dX6lLSPPIBnTT4lIkeUK-116" style="edgeStyle=orthogonalEdgeStyle;rounded=0;orthogonalLoop=1;jettySize=auto;html=1;entryX=1;entryY=0.5;entryDx=0;entryDy=0;exitX=0;exitY=0.25;exitDx=0;exitDy=0;" parent="1" source="dX6lLSPPIBnTT4lIkeUK-1" target="dX6lLSPPIBnTT4lIkeUK-97" edge="1">
          <mxGeometry relative="1" as="geometry" />
        </mxCell>
        <mxCell id="dX6lLSPPIBnTT4lIkeUK-117" style="edgeStyle=orthogonalEdgeStyle;rounded=0;orthogonalLoop=1;jettySize=auto;html=1;" parent="1" source="dX6lLSPPIBnTT4lIkeUK-1" edge="1">
          <mxGeometry relative="1" as="geometry">
            <mxPoint x="2010" y="2575" as="targetPoint" />
            <Array as="points">
              <mxPoint x="2110" y="2415" />
              <mxPoint x="2110" y="2575" />
            </Array>
          </mxGeometry>
        </mxCell>
        <mxCell id="dX6lLSPPIBnTT4lIkeUK-1" value="&lt;b&gt;admin&lt;/b&gt;" style="rounded=1;arcSize=10;whiteSpace=wrap;html=1;align=center;fillColor=#FF66B3;" parent="1" vertex="1">
          <mxGeometry x="2120" y="2395" width="100" height="40" as="geometry" />
        </mxCell>
        <mxCell id="dX6lLSPPIBnTT4lIkeUK-118" style="edgeStyle=orthogonalEdgeStyle;rounded=0;orthogonalLoop=1;jettySize=auto;html=1;exitX=0.75;exitY=1;exitDx=0;exitDy=0;entryX=0;entryY=0.5;entryDx=0;entryDy=0;" parent="1" source="dX6lLSPPIBnTT4lIkeUK-2" target="dX6lLSPPIBnTT4lIkeUK-88" edge="1">
          <mxGeometry relative="1" as="geometry">
            <Array as="points">
              <mxPoint x="1495" y="2525" />
              <mxPoint x="1560" y="2525" />
              <mxPoint x="1560" y="2775" />
            </Array>
          </mxGeometry>
        </mxCell>
        <mxCell id="dX6lLSPPIBnTT4lIkeUK-119" style="edgeStyle=orthogonalEdgeStyle;rounded=0;orthogonalLoop=1;jettySize=auto;html=1;entryX=0;entryY=0.5;entryDx=0;entryDy=0;" parent="1" source="dX6lLSPPIBnTT4lIkeUK-2" target="dX6lLSPPIBnTT4lIkeUK-85" edge="1">
          <mxGeometry relative="1" as="geometry" />
        </mxCell>
        <mxCell id="dX6lLSPPIBnTT4lIkeUK-2" value="&lt;b&gt;users&lt;/b&gt;" style="rounded=1;arcSize=10;whiteSpace=wrap;html=1;align=center;fillColor=#FF66B3;" parent="1" vertex="1">
          <mxGeometry x="1420" y="2455" width="100" height="40" as="geometry" />
        </mxCell>
        <mxCell id="dX6lLSPPIBnTT4lIkeUK-3" value="&lt;b&gt;after_login_FIR&lt;/b&gt;" style="rounded=1;arcSize=10;whiteSpace=wrap;html=1;align=center;fillColor=#FF66B3;" parent="1" vertex="1">
          <mxGeometry x="1880" y="2296" width="100" height="40" as="geometry" />
        </mxCell>
        <mxCell id="dX6lLSPPIBnTT4lIkeUK-4" value="&lt;b&gt;quick_FIR&lt;/b&gt;" style="rounded=1;arcSize=10;whiteSpace=wrap;html=1;align=center;fillColor=#FF6666;" parent="1" vertex="1">
          <mxGeometry x="1912" y="2755" width="100" height="40" as="geometry" />
        </mxCell>
        <mxCell id="dX6lLSPPIBnTT4lIkeUK-5" value="&lt;u style=&quot;&quot;&gt;user_id&lt;/u&gt;" style="ellipse;whiteSpace=wrap;html=1;align=center;fillColor=#99FFFF;" parent="1" vertex="1">
          <mxGeometry x="1340" y="2325" width="100" height="40" as="geometry" />
        </mxCell>
        <mxCell id="dX6lLSPPIBnTT4lIkeUK-6" value="password" style="ellipse;whiteSpace=wrap;html=1;align=center;fillColor=#99FFFF;" parent="1" vertex="1">
          <mxGeometry x="1430" y="2585" width="100" height="40" as="geometry" />
        </mxCell>
        <mxCell id="dX6lLSPPIBnTT4lIkeUK-7" value="phone" style="ellipse;whiteSpace=wrap;html=1;align=center;fillColor=#99FFFF;" parent="1" vertex="1">
          <mxGeometry x="1510" y="2325" width="100" height="40" as="geometry" />
        </mxCell>
        <mxCell id="dX6lLSPPIBnTT4lIkeUK-8" value="&lt;u style=&quot;&quot;&gt;email&lt;/u&gt;" style="ellipse;whiteSpace=wrap;html=1;align=center;fillColor=#99FFFF;" parent="1" vertex="1">
          <mxGeometry x="1420" y="2365" width="100" height="40" as="geometry" />
        </mxCell>
        <mxCell id="dX6lLSPPIBnTT4lIkeUK-9" value="dob" style="ellipse;whiteSpace=wrap;html=1;align=center;fillColor=#99FFFF;" parent="1" vertex="1">
          <mxGeometry x="1250" y="2515" width="100" height="40" as="geometry" />
        </mxCell>
        <mxCell id="dX6lLSPPIBnTT4lIkeUK-10" value="name" style="ellipse;whiteSpace=wrap;html=1;align=center;fillColor=#99FFFF;" parent="1" vertex="1">
          <mxGeometry x="1290" y="2395" width="100" height="40" as="geometry" />
        </mxCell>
        <mxCell id="dX6lLSPPIBnTT4lIkeUK-11" value="&lt;u&gt;fir_id&lt;/u&gt;" style="ellipse;whiteSpace=wrap;html=1;align=center;fillColor=#99FFFF;" parent="1" vertex="1">
          <mxGeometry x="1745" y="2795" width="100" height="40" as="geometry" />
        </mxCell>
        <mxCell id="dX6lLSPPIBnTT4lIkeUK-12" value="description" style="ellipse;whiteSpace=wrap;html=1;align=center;fillColor=#99FFFF;" parent="1" vertex="1">
          <mxGeometry x="2023" y="2845" width="100" height="40" as="geometry" />
        </mxCell>
        <mxCell id="dX6lLSPPIBnTT4lIkeUK-13" value="category" style="ellipse;whiteSpace=wrap;html=1;align=center;fillColor=#99FFFF;" parent="1" vertex="1">
          <mxGeometry x="2035" y="2785" width="100" height="40" as="geometry" />
        </mxCell>
        <mxCell id="dX6lLSPPIBnTT4lIkeUK-14" value="name" style="ellipse;whiteSpace=wrap;html=1;align=center;fillColor=#99FFFF;" parent="1" vertex="1">
          <mxGeometry x="1865" y="2645" width="100" height="40" as="geometry" />
        </mxCell>
        <mxCell id="dX6lLSPPIBnTT4lIkeUK-15" value="emergency_contact" style="ellipse;whiteSpace=wrap;html=1;align=center;fillColor=#99FFFF;" parent="1" vertex="1">
          <mxGeometry x="1965" y="2615" width="120" height="40" as="geometry" />
        </mxCell>
        <mxCell id="dX6lLSPPIBnTT4lIkeUK-17" value="name" style="ellipse;whiteSpace=wrap;html=1;align=center;fillColor=#99FFFF;" parent="1" vertex="1">
          <mxGeometry x="1767" y="2245" width="100" height="40" as="geometry" />
        </mxCell>
        <mxCell id="dX6lLSPPIBnTT4lIkeUK-18" value="description" style="ellipse;whiteSpace=wrap;html=1;align=center;fillColor=#99FFFF;" parent="1" vertex="1">
          <mxGeometry x="2057" y="2285" width="100" height="40" as="geometry" />
        </mxCell>
        <mxCell id="dX6lLSPPIBnTT4lIkeUK-19" value="&lt;u&gt;admin_id&lt;/u&gt;" style="ellipse;whiteSpace=wrap;html=1;align=center;fillColor=#99FFFF;" parent="1" vertex="1">
          <mxGeometry x="2270" y="2455" width="100" height="40" as="geometry" />
        </mxCell>
        <mxCell id="dX6lLSPPIBnTT4lIkeUK-20" value="admin_email" style="ellipse;whiteSpace=wrap;html=1;align=center;fillColor=#99FFFF;" parent="1" vertex="1">
          <mxGeometry x="2320" y="2345" width="100" height="40" as="geometry" />
        </mxCell>
        <mxCell id="dX6lLSPPIBnTT4lIkeUK-21" value="admin_name" style="ellipse;whiteSpace=wrap;html=1;align=center;fillColor=#99FFFF;" parent="1" vertex="1">
          <mxGeometry x="2310" y="2395" width="100" height="40" as="geometry" />
        </mxCell>
        <mxCell id="dX6lLSPPIBnTT4lIkeUK-22" value="where_occured_location" style="ellipse;whiteSpace=wrap;html=1;align=center;fillColor=#99FFFF;" parent="1" vertex="1">
          <mxGeometry x="1736" y="2141.5" width="162" height="40" as="geometry" />
        </mxCell>
        <mxCell id="dX6lLSPPIBnTT4lIkeUK-23" value="emergency_contact" style="ellipse;whiteSpace=wrap;html=1;align=center;fillColor=#99FFFF;" parent="1" vertex="1">
          <mxGeometry x="1700" y="2285" width="144" height="40" as="geometry" />
        </mxCell>
        <mxCell id="dX6lLSPPIBnTT4lIkeUK-24" value="category" style="ellipse;whiteSpace=wrap;html=1;align=center;fillColor=#99FFFF;" parent="1" vertex="1">
          <mxGeometry x="2039" y="2335" width="100" height="40" as="geometry" />
        </mxCell>
        <mxCell id="dX6lLSPPIBnTT4lIkeUK-25" value="FIR_status" style="ellipse;whiteSpace=wrap;html=1;align=center;fillColor=#99FFFF;" parent="1" vertex="1">
          <mxGeometry x="1922" y="2181.5" width="90" height="31" as="geometry" />
        </mxCell>
        <mxCell id="dX6lLSPPIBnTT4lIkeUK-26" value="document_details" style="ellipse;whiteSpace=wrap;html=1;align=center;fillColor=#99FFFF;" parent="1" vertex="1">
          <mxGeometry x="1340" y="2635" width="120" height="40" as="geometry" />
        </mxCell>
        <mxCell id="dX6lLSPPIBnTT4lIkeUK-27" value="document_type" style="ellipse;whiteSpace=wrap;html=1;align=center;fillColor=#99FFFF;" parent="1" vertex="1">
          <mxGeometry x="1290" y="2585" width="100" height="40" as="geometry" />
        </mxCell>
        <mxCell id="dX6lLSPPIBnTT4lIkeUK-28" value="address" style="ellipse;whiteSpace=wrap;html=1;align=center;fillColor=#99FFFF;" parent="1" vertex="1">
          <mxGeometry x="1250" y="2455" width="100" height="40" as="geometry" />
        </mxCell>
        <mxCell id="dX6lLSPPIBnTT4lIkeUK-32" value="" style="endArrow=none;html=1;rounded=0;exitX=0.068;exitY=-0.062;exitDx=0;exitDy=0;exitPerimeter=0;entryX=0.437;entryY=0.987;entryDx=0;entryDy=0;entryPerimeter=0;" parent="1" source="dX6lLSPPIBnTT4lIkeUK-2" target="dX6lLSPPIBnTT4lIkeUK-5" edge="1">
          <mxGeometry width="50" height="50" relative="1" as="geometry">
            <mxPoint x="1410" y="2485" as="sourcePoint" />
            <mxPoint x="1460" y="2435" as="targetPoint" />
          </mxGeometry>
        </mxCell>
        <mxCell id="dX6lLSPPIBnTT4lIkeUK-33" value="" style="endArrow=none;html=1;rounded=0;entryX=0.366;entryY=0.989;entryDx=0;entryDy=0;entryPerimeter=0;exitX=0.433;exitY=-0.024;exitDx=0;exitDy=0;exitPerimeter=0;" parent="1" source="dX6lLSPPIBnTT4lIkeUK-2" target="dX6lLSPPIBnTT4lIkeUK-8" edge="1">
          <mxGeometry width="50" height="50" relative="1" as="geometry">
            <mxPoint x="1510" y="2495" as="sourcePoint" />
            <mxPoint x="1470" y="2445" as="targetPoint" />
          </mxGeometry>
        </mxCell>
        <mxCell id="dX6lLSPPIBnTT4lIkeUK-34" value="" style="endArrow=none;html=1;rounded=0;exitX=0.652;exitY=-0.062;exitDx=0;exitDy=0;entryX=0.346;entryY=0.976;entryDx=0;entryDy=0;entryPerimeter=0;exitPerimeter=0;" parent="1" source="dX6lLSPPIBnTT4lIkeUK-2" target="dX6lLSPPIBnTT4lIkeUK-7" edge="1">
          <mxGeometry width="50" height="50" relative="1" as="geometry">
            <mxPoint x="1650" y="2515" as="sourcePoint" />
            <mxPoint x="1700" y="2465" as="targetPoint" />
          </mxGeometry>
        </mxCell>
        <mxCell id="dX6lLSPPIBnTT4lIkeUK-35" value="" style="endArrow=none;html=1;rounded=0;exitX=0.015;exitY=0.153;exitDx=0;exitDy=0;exitPerimeter=0;" parent="1" source="dX6lLSPPIBnTT4lIkeUK-2" target="dX6lLSPPIBnTT4lIkeUK-10" edge="1">
          <mxGeometry width="50" height="50" relative="1" as="geometry">
            <mxPoint x="1650" y="2515" as="sourcePoint" />
            <mxPoint x="1700" y="2465" as="targetPoint" />
          </mxGeometry>
        </mxCell>
        <mxCell id="dX6lLSPPIBnTT4lIkeUK-36" value="" style="endArrow=none;html=1;rounded=0;exitX=0.119;exitY=1.034;exitDx=0;exitDy=0;exitPerimeter=0;entryX=0.762;entryY=-0.044;entryDx=0;entryDy=0;entryPerimeter=0;" parent="1" source="dX6lLSPPIBnTT4lIkeUK-2" target="dX6lLSPPIBnTT4lIkeUK-27" edge="1">
          <mxGeometry width="50" height="50" relative="1" as="geometry">
            <mxPoint x="1432" y="2521" as="sourcePoint" />
            <mxPoint x="1366" y="2444" as="targetPoint" />
          </mxGeometry>
        </mxCell>
        <mxCell id="dX6lLSPPIBnTT4lIkeUK-37" value="" style="endArrow=none;html=1;rounded=0;exitX=-0.025;exitY=0.902;exitDx=0;exitDy=0;exitPerimeter=0;entryX=1;entryY=0.5;entryDx=0;entryDy=0;" parent="1" source="dX6lLSPPIBnTT4lIkeUK-2" target="dX6lLSPPIBnTT4lIkeUK-9" edge="1">
          <mxGeometry width="50" height="50" relative="1" as="geometry">
            <mxPoint x="1442" y="2531" as="sourcePoint" />
            <mxPoint x="1376" y="2454" as="targetPoint" />
          </mxGeometry>
        </mxCell>
        <mxCell id="dX6lLSPPIBnTT4lIkeUK-38" value="" style="endArrow=none;html=1;rounded=0;exitX=-0.025;exitY=0.661;exitDx=0;exitDy=0;exitPerimeter=0;entryX=1.014;entryY=0.654;entryDx=0;entryDy=0;entryPerimeter=0;" parent="1" source="dX6lLSPPIBnTT4lIkeUK-2" target="dX6lLSPPIBnTT4lIkeUK-28" edge="1">
          <mxGeometry width="50" height="50" relative="1" as="geometry">
            <mxPoint x="1452" y="2541" as="sourcePoint" />
            <mxPoint x="1386" y="2464" as="targetPoint" />
          </mxGeometry>
        </mxCell>
        <mxCell id="dX6lLSPPIBnTT4lIkeUK-39" value="" style="endArrow=none;html=1;rounded=0;entryX=0.317;entryY=1.03;entryDx=0;entryDy=0;exitX=0.459;exitY=-0.01;exitDx=0;exitDy=0;exitPerimeter=0;entryPerimeter=0;" parent="1" source="dX6lLSPPIBnTT4lIkeUK-26" target="dX6lLSPPIBnTT4lIkeUK-2" edge="1">
          <mxGeometry width="50" height="50" relative="1" as="geometry">
            <mxPoint x="1650" y="2515" as="sourcePoint" />
            <mxPoint x="1700" y="2465" as="targetPoint" />
          </mxGeometry>
        </mxCell>
        <mxCell id="dX6lLSPPIBnTT4lIkeUK-40" value="" style="endArrow=none;html=1;rounded=0;entryX=0.5;entryY=1;entryDx=0;entryDy=0;exitX=0.334;exitY=-0.023;exitDx=0;exitDy=0;exitPerimeter=0;" parent="1" source="dX6lLSPPIBnTT4lIkeUK-6" target="dX6lLSPPIBnTT4lIkeUK-2" edge="1">
          <mxGeometry width="50" height="50" relative="1" as="geometry">
            <mxPoint x="1650" y="2515" as="sourcePoint" />
            <mxPoint x="1700" y="2465" as="targetPoint" />
          </mxGeometry>
        </mxCell>
        <mxCell id="dX6lLSPPIBnTT4lIkeUK-41" value="registration_date" style="ellipse;whiteSpace=wrap;html=1;align=center;fillColor=#99FFFF;" parent="1" vertex="1">
          <mxGeometry x="1568" y="2385" width="116" height="40" as="geometry" />
        </mxCell>
        <mxCell id="dX6lLSPPIBnTT4lIkeUK-42" value="" style="endArrow=none;html=1;rounded=0;exitX=0.876;exitY=-0.036;exitDx=0;exitDy=0;entryX=-0.03;entryY=0.668;entryDx=0;entryDy=0;entryPerimeter=0;exitPerimeter=0;" parent="1" source="dX6lLSPPIBnTT4lIkeUK-2" target="dX6lLSPPIBnTT4lIkeUK-41" edge="1">
          <mxGeometry width="50" height="50" relative="1" as="geometry">
            <mxPoint x="1505" y="2483" as="sourcePoint" />
            <mxPoint x="1615" y="2424" as="targetPoint" />
          </mxGeometry>
        </mxCell>
        <mxCell id="dX6lLSPPIBnTT4lIkeUK-43" value="FIR_STATUS" style="ellipse;whiteSpace=wrap;html=1;align=center;fillColor=#99FFFF;" parent="1" vertex="1">
          <mxGeometry x="1769" y="2675" width="100" height="40" as="geometry" />
        </mxCell>
        <mxCell id="dX6lLSPPIBnTT4lIkeUK-44" value="FIR_REPORT_DATE" style="ellipse;whiteSpace=wrap;html=1;align=center;fillColor=#99FFFF;" parent="1" vertex="1">
          <mxGeometry x="2030" y="2669" width="130" height="40" as="geometry" />
        </mxCell>
        <mxCell id="dX6lLSPPIBnTT4lIkeUK-45" value="where_occured_location" style="ellipse;whiteSpace=wrap;html=1;align=center;fillColor=#99FFFF;" parent="1" vertex="1">
          <mxGeometry x="1735" y="2855" width="160" height="40" as="geometry" />
        </mxCell>
        <mxCell id="dX6lLSPPIBnTT4lIkeUK-46" value="when_occured_date" style="ellipse;whiteSpace=wrap;html=1;align=center;fillColor=#99FFFF;" parent="1" vertex="1">
          <mxGeometry x="1945" y="2905" width="140" height="40" as="geometry" />
        </mxCell>
        <mxCell id="dX6lLSPPIBnTT4lIkeUK-47" value="when_occurred_time" style="ellipse;whiteSpace=wrap;html=1;align=center;fillColor=#99FFFF;" parent="1" vertex="1">
          <mxGeometry x="1795" y="2915" width="140" height="40" as="geometry" />
        </mxCell>
        <mxCell id="dX6lLSPPIBnTT4lIkeUK-48" value="" style="endArrow=none;html=1;rounded=0;entryX=0.17;entryY=0.978;entryDx=0;entryDy=0;entryPerimeter=0;" parent="1" source="dX6lLSPPIBnTT4lIkeUK-45" target="dX6lLSPPIBnTT4lIkeUK-4" edge="1">
          <mxGeometry width="50" height="50" relative="1" as="geometry">
            <mxPoint x="1905" y="2855" as="sourcePoint" />
            <mxPoint x="1955" y="2805" as="targetPoint" />
          </mxGeometry>
        </mxCell>
        <mxCell id="dX6lLSPPIBnTT4lIkeUK-49" value="" style="endArrow=none;html=1;rounded=0;exitX=1.005;exitY=0.668;exitDx=0;exitDy=0;exitPerimeter=0;entryX=0;entryY=1;entryDx=0;entryDy=0;" parent="1" source="dX6lLSPPIBnTT4lIkeUK-11" target="dX6lLSPPIBnTT4lIkeUK-4" edge="1">
          <mxGeometry width="50" height="50" relative="1" as="geometry">
            <mxPoint x="1905" y="2855" as="sourcePoint" />
            <mxPoint x="1955" y="2805" as="targetPoint" />
          </mxGeometry>
        </mxCell>
        <mxCell id="dX6lLSPPIBnTT4lIkeUK-50" value="" style="endArrow=none;html=1;rounded=0;entryX=0.758;entryY=0.011;entryDx=0;entryDy=0;entryPerimeter=0;exitX=0.32;exitY=1.001;exitDx=0;exitDy=0;exitPerimeter=0;" parent="1" source="dX6lLSPPIBnTT4lIkeUK-4" target="dX6lLSPPIBnTT4lIkeUK-47" edge="1">
          <mxGeometry width="50" height="50" relative="1" as="geometry">
            <mxPoint x="1905" y="2855" as="sourcePoint" />
            <mxPoint x="1955" y="2805" as="targetPoint" />
          </mxGeometry>
        </mxCell>
        <mxCell id="dX6lLSPPIBnTT4lIkeUK-51" value="" style="endArrow=none;html=1;rounded=0;exitX=0;exitY=0.5;exitDx=0;exitDy=0;entryX=1;entryY=0.5;entryDx=0;entryDy=0;entryPerimeter=0;" parent="1" source="dX6lLSPPIBnTT4lIkeUK-13" target="dX6lLSPPIBnTT4lIkeUK-4" edge="1">
          <mxGeometry width="50" height="50" relative="1" as="geometry">
            <mxPoint x="1905" y="2855" as="sourcePoint" />
            <mxPoint x="1955" y="2805" as="targetPoint" />
          </mxGeometry>
        </mxCell>
        <mxCell id="dX6lLSPPIBnTT4lIkeUK-52" value="" style="endArrow=none;html=1;rounded=0;entryX=0.398;entryY=-0.063;entryDx=0;entryDy=0;entryPerimeter=0;exitX=0.5;exitY=1;exitDx=0;exitDy=0;" parent="1" source="dX6lLSPPIBnTT4lIkeUK-4" target="dX6lLSPPIBnTT4lIkeUK-46" edge="1">
          <mxGeometry width="50" height="50" relative="1" as="geometry">
            <mxPoint x="1905" y="2855" as="sourcePoint" />
            <mxPoint x="1955" y="2805" as="targetPoint" />
          </mxGeometry>
        </mxCell>
        <mxCell id="dX6lLSPPIBnTT4lIkeUK-53" value="" style="endArrow=none;html=1;rounded=0;entryX=0.013;entryY=0.335;entryDx=0;entryDy=0;entryPerimeter=0;exitX=0.876;exitY=1.094;exitDx=0;exitDy=0;exitPerimeter=0;" parent="1" source="dX6lLSPPIBnTT4lIkeUK-4" target="dX6lLSPPIBnTT4lIkeUK-12" edge="1">
          <mxGeometry width="50" height="50" relative="1" as="geometry">
            <mxPoint x="1905" y="2855" as="sourcePoint" />
            <mxPoint x="1955" y="2805" as="targetPoint" />
          </mxGeometry>
        </mxCell>
        <mxCell id="dX6lLSPPIBnTT4lIkeUK-54" value="" style="endArrow=none;html=1;rounded=0;entryX=0.024;entryY=0.659;entryDx=0;entryDy=0;entryPerimeter=0;exitX=0.831;exitY=-0.054;exitDx=0;exitDy=0;exitPerimeter=0;" parent="1" source="dX6lLSPPIBnTT4lIkeUK-4" target="dX6lLSPPIBnTT4lIkeUK-44" edge="1">
          <mxGeometry width="50" height="50" relative="1" as="geometry">
            <mxPoint x="1905" y="2855" as="sourcePoint" />
            <mxPoint x="2078.16" y="2755.04" as="targetPoint" />
          </mxGeometry>
        </mxCell>
        <mxCell id="dX6lLSPPIBnTT4lIkeUK-55" value="" style="endArrow=none;html=1;rounded=0;exitX=0.43;exitY=1.001;exitDx=0;exitDy=0;exitPerimeter=0;entryX=0.5;entryY=0;entryDx=0;entryDy=0;" parent="1" source="dX6lLSPPIBnTT4lIkeUK-15" target="dX6lLSPPIBnTT4lIkeUK-4" edge="1">
          <mxGeometry width="50" height="50" relative="1" as="geometry">
            <mxPoint x="1905" y="2855" as="sourcePoint" />
            <mxPoint x="1955" y="2785" as="targetPoint" />
          </mxGeometry>
        </mxCell>
        <mxCell id="dX6lLSPPIBnTT4lIkeUK-56" value="" style="endArrow=none;html=1;rounded=0;exitX=0.768;exitY=0.881;exitDx=0;exitDy=0;exitPerimeter=0;entryX=0.25;entryY=0;entryDx=0;entryDy=0;" parent="1" source="dX6lLSPPIBnTT4lIkeUK-14" target="dX6lLSPPIBnTT4lIkeUK-4" edge="1">
          <mxGeometry width="50" height="50" relative="1" as="geometry">
            <mxPoint x="1905" y="2855" as="sourcePoint" />
            <mxPoint x="1955" y="2805" as="targetPoint" />
          </mxGeometry>
        </mxCell>
        <mxCell id="dX6lLSPPIBnTT4lIkeUK-58" value="" style="endArrow=none;html=1;rounded=0;entryX=0.946;entryY=0.853;entryDx=0;entryDy=0;entryPerimeter=0;exitX=0;exitY=0;exitDx=0;exitDy=0;" parent="1" source="dX6lLSPPIBnTT4lIkeUK-4" target="dX6lLSPPIBnTT4lIkeUK-43" edge="1">
          <mxGeometry width="50" height="50" relative="1" as="geometry">
            <mxPoint x="1905" y="2855" as="sourcePoint" />
            <mxPoint x="1955" y="2805" as="targetPoint" />
          </mxGeometry>
        </mxCell>
        <mxCell id="dX6lLSPPIBnTT4lIkeUK-60" value="when_occurred_time" style="ellipse;whiteSpace=wrap;html=1;align=center;fillColor=#99FFFF;" parent="1" vertex="1">
          <mxGeometry x="1844" y="2095" width="148" height="40" as="geometry" />
        </mxCell>
        <mxCell id="dX6lLSPPIBnTT4lIkeUK-61" value="when_occured_date" style="ellipse;whiteSpace=wrap;html=1;align=center;fillColor=#99FFFF;" parent="1" vertex="1">
          <mxGeometry x="2047" y="2235" width="140" height="40" as="geometry" />
        </mxCell>
        <mxCell id="dX6lLSPPIBnTT4lIkeUK-62" value="FIR_REPORT_DATE" style="ellipse;whiteSpace=wrap;html=1;align=center;fillColor=#99FFFF;" parent="1" vertex="1">
          <mxGeometry x="2039" y="2177" width="148" height="40" as="geometry" />
        </mxCell>
        <mxCell id="dX6lLSPPIBnTT4lIkeUK-63" value="&lt;u&gt;fir_id&lt;/u&gt;" style="ellipse;whiteSpace=wrap;html=1;align=center;fillColor=#99FFFF;" parent="1" vertex="1">
          <mxGeometry x="1770.5" y="2195" width="100" height="40" as="geometry" />
        </mxCell>
        <mxCell id="dX6lLSPPIBnTT4lIkeUK-64" value="&lt;u&gt;user_email&lt;/u&gt;" style="ellipse;whiteSpace=wrap;html=1;align=center;fillColor=#99FFFF;" parent="1" vertex="1">
          <mxGeometry x="1985" y="2127" width="100" height="50" as="geometry" />
        </mxCell>
        <mxCell id="dX6lLSPPIBnTT4lIkeUK-66" value="" style="endArrow=none;html=1;rounded=0;entryX=-0.013;entryY=0.671;entryDx=0;entryDy=0;entryPerimeter=0;" parent="1" source="dX6lLSPPIBnTT4lIkeUK-3" target="dX6lLSPPIBnTT4lIkeUK-61" edge="1">
          <mxGeometry width="50" height="50" relative="1" as="geometry">
            <mxPoint x="2076.5" y="2336" as="sourcePoint" />
            <mxPoint x="2126.5" y="2286" as="targetPoint" />
          </mxGeometry>
        </mxCell>
        <mxCell id="dX6lLSPPIBnTT4lIkeUK-67" value="" style="endArrow=none;html=1;rounded=0;entryX=0.322;entryY=1.079;entryDx=0;entryDy=0;entryPerimeter=0;exitX=0.865;exitY=-0.025;exitDx=0;exitDy=0;exitPerimeter=0;" parent="1" source="dX6lLSPPIBnTT4lIkeUK-3" target="dX6lLSPPIBnTT4lIkeUK-62" edge="1">
          <mxGeometry width="50" height="50" relative="1" as="geometry">
            <mxPoint x="2076.5" y="2336" as="sourcePoint" />
            <mxPoint x="2126.5" y="2286" as="targetPoint" />
          </mxGeometry>
        </mxCell>
        <mxCell id="dX6lLSPPIBnTT4lIkeUK-68" value="" style="endArrow=none;html=1;rounded=0;entryX=0.5;entryY=1;entryDx=0;entryDy=0;exitX=0.71;exitY=-0.02;exitDx=0;exitDy=0;exitPerimeter=0;" parent="1" source="dX6lLSPPIBnTT4lIkeUK-3" target="dX6lLSPPIBnTT4lIkeUK-25" edge="1">
          <mxGeometry width="50" height="50" relative="1" as="geometry">
            <mxPoint x="2076.5" y="2336" as="sourcePoint" />
            <mxPoint x="2126.5" y="2286" as="targetPoint" />
          </mxGeometry>
        </mxCell>
        <mxCell id="dX6lLSPPIBnTT4lIkeUK-69" value="" style="endArrow=none;html=1;rounded=0;entryX=0.457;entryY=0.977;entryDx=0;entryDy=0;entryPerimeter=0;exitX=0.5;exitY=0;exitDx=0;exitDy=0;" parent="1" source="dX6lLSPPIBnTT4lIkeUK-3" target="dX6lLSPPIBnTT4lIkeUK-60" edge="1">
          <mxGeometry width="50" height="50" relative="1" as="geometry">
            <mxPoint x="2076.5" y="2336" as="sourcePoint" />
            <mxPoint x="2126.5" y="2286" as="targetPoint" />
          </mxGeometry>
        </mxCell>
        <mxCell id="dX6lLSPPIBnTT4lIkeUK-70" value="" style="endArrow=none;html=1;rounded=0;entryX=1;entryY=1;entryDx=0;entryDy=0;exitX=0.34;exitY=-0.066;exitDx=0;exitDy=0;exitPerimeter=0;" parent="1" source="dX6lLSPPIBnTT4lIkeUK-3" target="dX6lLSPPIBnTT4lIkeUK-22" edge="1">
          <mxGeometry width="50" height="50" relative="1" as="geometry">
            <mxPoint x="2076.5" y="2336" as="sourcePoint" />
            <mxPoint x="2126.5" y="2286" as="targetPoint" />
          </mxGeometry>
        </mxCell>
        <mxCell id="dX6lLSPPIBnTT4lIkeUK-71" value="" style="endArrow=none;html=1;rounded=0;entryX=0.911;entryY=0.792;entryDx=0;entryDy=0;entryPerimeter=0;exitX=0.199;exitY=-0.02;exitDx=0;exitDy=0;exitPerimeter=0;" parent="1" source="dX6lLSPPIBnTT4lIkeUK-3" target="dX6lLSPPIBnTT4lIkeUK-63" edge="1">
          <mxGeometry width="50" height="50" relative="1" as="geometry">
            <mxPoint x="2076.5" y="2336" as="sourcePoint" />
            <mxPoint x="2126.5" y="2286" as="targetPoint" />
          </mxGeometry>
        </mxCell>
        <mxCell id="dX6lLSPPIBnTT4lIkeUK-72" value="" style="endArrow=none;html=1;rounded=0;entryX=0.942;entryY=0.737;entryDx=0;entryDy=0;entryPerimeter=0;exitX=0.014;exitY=0.091;exitDx=0;exitDy=0;exitPerimeter=0;" parent="1" source="dX6lLSPPIBnTT4lIkeUK-3" target="dX6lLSPPIBnTT4lIkeUK-17" edge="1">
          <mxGeometry width="50" height="50" relative="1" as="geometry">
            <mxPoint x="2076.5" y="2336" as="sourcePoint" />
            <mxPoint x="2126.5" y="2286" as="targetPoint" />
          </mxGeometry>
        </mxCell>
        <mxCell id="dX6lLSPPIBnTT4lIkeUK-73" value="" style="endArrow=none;html=1;rounded=0;entryX=1;entryY=0.5;entryDx=0;entryDy=0;exitX=-0.005;exitY=0.397;exitDx=0;exitDy=0;exitPerimeter=0;" parent="1" source="dX6lLSPPIBnTT4lIkeUK-3" target="dX6lLSPPIBnTT4lIkeUK-23" edge="1">
          <mxGeometry width="50" height="50" relative="1" as="geometry">
            <mxPoint x="2076.5" y="2336" as="sourcePoint" />
            <mxPoint x="2126.5" y="2286" as="targetPoint" />
          </mxGeometry>
        </mxCell>
        <mxCell id="dX6lLSPPIBnTT4lIkeUK-74" value="" style="endArrow=none;html=1;rounded=0;entryX=0.5;entryY=1;entryDx=0;entryDy=0;exitX=0.75;exitY=0;exitDx=0;exitDy=0;" parent="1" source="dX6lLSPPIBnTT4lIkeUK-3" target="dX6lLSPPIBnTT4lIkeUK-64" edge="1">
          <mxGeometry width="50" height="50" relative="1" as="geometry">
            <mxPoint x="2076.5" y="2336" as="sourcePoint" />
            <mxPoint x="2126.5" y="2286" as="targetPoint" />
          </mxGeometry>
        </mxCell>
        <mxCell id="dX6lLSPPIBnTT4lIkeUK-75" value="" style="endArrow=none;html=1;rounded=0;entryX=0.025;entryY=0.351;entryDx=0;entryDy=0;exitX=0.999;exitY=0.675;exitDx=0;exitDy=0;exitPerimeter=0;entryPerimeter=0;" parent="1" source="dX6lLSPPIBnTT4lIkeUK-3" target="dX6lLSPPIBnTT4lIkeUK-24" edge="1">
          <mxGeometry width="50" height="50" relative="1" as="geometry">
            <mxPoint x="2076.5" y="2336" as="sourcePoint" />
            <mxPoint x="2126.5" y="2286" as="targetPoint" />
          </mxGeometry>
        </mxCell>
        <mxCell id="dX6lLSPPIBnTT4lIkeUK-76" value="" style="endArrow=none;html=1;rounded=0;entryX=0;entryY=0.5;entryDx=0;entryDy=0;exitX=1;exitY=0.25;exitDx=0;exitDy=0;" parent="1" source="dX6lLSPPIBnTT4lIkeUK-3" target="dX6lLSPPIBnTT4lIkeUK-18" edge="1">
          <mxGeometry width="50" height="50" relative="1" as="geometry">
            <mxPoint x="2076.5" y="2336" as="sourcePoint" />
            <mxPoint x="2126.5" y="2286" as="targetPoint" />
          </mxGeometry>
        </mxCell>
        <mxCell id="dX6lLSPPIBnTT4lIkeUK-77" value="admin_password" style="ellipse;whiteSpace=wrap;html=1;align=center;fillColor=#99FFFF;" parent="1" vertex="1">
          <mxGeometry x="2280" y="2285" width="120" height="40" as="geometry" />
        </mxCell>
        <mxCell id="dX6lLSPPIBnTT4lIkeUK-78" value="" style="endArrow=none;html=1;rounded=0;entryX=0.874;entryY=1.007;entryDx=0;entryDy=0;entryPerimeter=0;exitX=0.346;exitY=0.017;exitDx=0;exitDy=0;exitPerimeter=0;" parent="1" source="dX6lLSPPIBnTT4lIkeUK-19" target="dX6lLSPPIBnTT4lIkeUK-1" edge="1">
          <mxGeometry width="50" height="50" relative="1" as="geometry">
            <mxPoint x="2320" y="2475" as="sourcePoint" />
            <mxPoint x="2370" y="2425" as="targetPoint" />
          </mxGeometry>
        </mxCell>
        <mxCell id="dX6lLSPPIBnTT4lIkeUK-79" value="" style="endArrow=none;html=1;rounded=0;entryX=0.5;entryY=1;entryDx=0;entryDy=0;exitX=0.392;exitY=-0.017;exitDx=0;exitDy=0;exitPerimeter=0;" parent="1" source="dX6lLSPPIBnTT4lIkeUK-1" target="dX6lLSPPIBnTT4lIkeUK-77" edge="1">
          <mxGeometry width="50" height="50" relative="1" as="geometry">
            <mxPoint x="2320" y="2475" as="sourcePoint" />
            <mxPoint x="2370" y="2425" as="targetPoint" />
          </mxGeometry>
        </mxCell>
        <mxCell id="dX6lLSPPIBnTT4lIkeUK-80" value="" style="endArrow=none;html=1;rounded=0;entryX=0;entryY=1;entryDx=0;entryDy=0;exitX=0.75;exitY=0;exitDx=0;exitDy=0;" parent="1" source="dX6lLSPPIBnTT4lIkeUK-1" target="dX6lLSPPIBnTT4lIkeUK-20" edge="1">
          <mxGeometry width="50" height="50" relative="1" as="geometry">
            <mxPoint x="2320" y="2475" as="sourcePoint" />
            <mxPoint x="2370" y="2425" as="targetPoint" />
          </mxGeometry>
        </mxCell>
        <mxCell id="dX6lLSPPIBnTT4lIkeUK-81" value="" style="endArrow=none;html=1;rounded=0;exitX=1;exitY=0.5;exitDx=0;exitDy=0;entryX=0;entryY=0.5;entryDx=0;entryDy=0;" parent="1" source="dX6lLSPPIBnTT4lIkeUK-1" target="dX6lLSPPIBnTT4lIkeUK-21" edge="1">
          <mxGeometry width="50" height="50" relative="1" as="geometry">
            <mxPoint x="2320" y="2475" as="sourcePoint" />
            <mxPoint x="2370" y="2425" as="targetPoint" />
          </mxGeometry>
        </mxCell>
        <mxCell id="dX6lLSPPIBnTT4lIkeUK-83" style="edgeStyle=orthogonalEdgeStyle;rounded=0;orthogonalLoop=1;jettySize=auto;html=1;exitX=-0.007;exitY=0.503;exitDx=0;exitDy=0;exitPerimeter=0;entryX=1;entryY=0.75;entryDx=0;entryDy=0;" parent="1" source="dX6lLSPPIBnTT4lIkeUK-82" target="dX6lLSPPIBnTT4lIkeUK-2" edge="1">
          <mxGeometry relative="1" as="geometry">
            <mxPoint x="1869.996" y="2490.7599999999998" as="sourcePoint" />
            <mxPoint x="1530" y="2495" as="targetPoint" />
            <Array as="points" />
          </mxGeometry>
        </mxCell>
        <mxCell id="dX6lLSPPIBnTT4lIkeUK-82" value="Manages" style="shape=rhombus;perimeter=rhombusPerimeter;whiteSpace=wrap;html=1;align=center;fillColor=#4DFFCF;" parent="1" vertex="1">
          <mxGeometry x="1810" y="2545" width="198" height="60" as="geometry" />
        </mxCell>
        <mxCell id="dX6lLSPPIBnTT4lIkeUK-110" style="edgeStyle=orthogonalEdgeStyle;rounded=0;orthogonalLoop=1;jettySize=auto;html=1;entryX=0.25;entryY=1;entryDx=0;entryDy=0;" parent="1" source="dX6lLSPPIBnTT4lIkeUK-85" target="dX6lLSPPIBnTT4lIkeUK-3" edge="1">
          <mxGeometry relative="1" as="geometry" />
        </mxCell>
        <mxCell id="dX6lLSPPIBnTT4lIkeUK-85" value="File&amp;nbsp;&lt;br&gt;Complaint" style="shape=rhombus;perimeter=rhombusPerimeter;whiteSpace=wrap;html=1;align=center;fillColor=#4DFFCF;" parent="1" vertex="1">
          <mxGeometry x="1844" y="2445" width="121" height="60" as="geometry" />
        </mxCell>
        <mxCell id="dX6lLSPPIBnTT4lIkeUK-112" style="edgeStyle=orthogonalEdgeStyle;rounded=0;orthogonalLoop=1;jettySize=auto;html=1;entryX=0;entryY=0.5;entryDx=0;entryDy=0;" parent="1" source="dX6lLSPPIBnTT4lIkeUK-88" target="dX6lLSPPIBnTT4lIkeUK-4" edge="1">
          <mxGeometry relative="1" as="geometry" />
        </mxCell>
        <mxCell id="dX6lLSPPIBnTT4lIkeUK-88" value="File&amp;nbsp;&lt;br&gt;Complaint" style="shape=rhombus;perimeter=rhombusPerimeter;whiteSpace=wrap;html=1;align=center;fillColor=#4DFFCF;" parent="1" vertex="1">
          <mxGeometry x="1600" y="2745" width="120" height="60" as="geometry" />
        </mxCell>
        <mxCell id="dX6lLSPPIBnTT4lIkeUK-114" style="edgeStyle=orthogonalEdgeStyle;rounded=0;orthogonalLoop=1;jettySize=auto;html=1;entryX=1;entryY=0.25;entryDx=0;entryDy=0;" parent="1" source="dX6lLSPPIBnTT4lIkeUK-91" target="dX6lLSPPIBnTT4lIkeUK-4" edge="1">
          <mxGeometry relative="1" as="geometry">
            <Array as="points">
              <mxPoint x="2220" y="2765" />
            </Array>
          </mxGeometry>
        </mxCell>
        <mxCell id="dX6lLSPPIBnTT4lIkeUK-91" value="Manages" style="shape=rhombus;perimeter=rhombusPerimeter;whiteSpace=wrap;html=1;align=center;fillColor=#4DFFCF;" parent="1" vertex="1">
          <mxGeometry x="2160" y="2605" width="120" height="60" as="geometry" />
        </mxCell>
        <mxCell id="dX6lLSPPIBnTT4lIkeUK-109" style="edgeStyle=orthogonalEdgeStyle;rounded=0;orthogonalLoop=1;jettySize=auto;html=1;entryX=0.406;entryY=0.96;entryDx=0;entryDy=0;entryPerimeter=0;exitX=0;exitY=0.5;exitDx=0;exitDy=0;" parent="1" source="dX6lLSPPIBnTT4lIkeUK-97" target="dX6lLSPPIBnTT4lIkeUK-3" edge="1">
          <mxGeometry relative="1" as="geometry">
            <mxPoint x="1920" y="2345" as="targetPoint" />
            <Array as="points">
              <mxPoint x="1921" y="2405" />
            </Array>
          </mxGeometry>
        </mxCell>
        <mxCell id="dX6lLSPPIBnTT4lIkeUK-97" value="Manages" style="shape=rhombus;perimeter=rhombusPerimeter;whiteSpace=wrap;html=1;align=center;fillColor=#4DFFCF;" parent="1" vertex="1">
          <mxGeometry x="1950" y="2375" width="120" height="60" as="geometry" />
        </mxCell>
        <mxCell id="BRBZGAeBC_l1x4wug89M-1" value="1" style="text;html=1;strokeColor=none;fillColor=none;align=center;verticalAlign=middle;whiteSpace=wrap;rounded=0;" parent="1" vertex="1">
          <mxGeometry x="1528" y="2465" width="12" height="10" as="geometry" />
        </mxCell>
        <mxCell id="BRBZGAeBC_l1x4wug89M-3" value="&lt;b&gt;M&lt;/b&gt;" style="text;html=1;strokeColor=none;fillColor=none;align=center;verticalAlign=middle;whiteSpace=wrap;rounded=0;" parent="1" vertex="1">
          <mxGeometry x="1890" y="2345" width="20" height="20" as="geometry" />
        </mxCell>
        <mxCell id="BRBZGAeBC_l1x4wug89M-4" value="&lt;b&gt;M&lt;/b&gt;" style="text;html=1;strokeColor=none;fillColor=none;align=center;verticalAlign=middle;whiteSpace=wrap;rounded=0;" parent="1" vertex="1">
          <mxGeometry x="1500" y="2495" width="20" height="20" as="geometry" />
        </mxCell>
        <mxCell id="BRBZGAeBC_l1x4wug89M-5" value="&lt;b&gt;M&lt;/b&gt;" style="text;html=1;strokeColor=none;fillColor=none;align=center;verticalAlign=middle;whiteSpace=wrap;rounded=0;" parent="1" vertex="1">
          <mxGeometry x="1880" y="2758.5" width="20" height="20" as="geometry" />
        </mxCell>
        <mxCell id="BRBZGAeBC_l1x4wug89M-10" value="&lt;b&gt;M&lt;/b&gt;" style="text;html=1;strokeColor=none;fillColor=none;align=center;verticalAlign=middle;whiteSpace=wrap;rounded=0;" parent="1" vertex="1">
          <mxGeometry x="2102" y="2395" width="10" height="10" as="geometry" />
        </mxCell>
        <mxCell id="BRBZGAeBC_l1x4wug89M-11" value="&lt;b&gt;M&lt;/b&gt;" style="text;html=1;strokeColor=none;fillColor=none;align=center;verticalAlign=middle;whiteSpace=wrap;rounded=0;" parent="1" vertex="1">
          <mxGeometry x="1925" y="2350" width="10" height="10" as="geometry" />
        </mxCell>
        <mxCell id="BRBZGAeBC_l1x4wug89M-14" value="&lt;b&gt;M&lt;/b&gt;" style="text;html=1;strokeColor=none;fillColor=none;align=center;verticalAlign=middle;whiteSpace=wrap;rounded=0;" parent="1" vertex="1">
          <mxGeometry x="2092" y="2425" width="10" height="10" as="geometry" />
        </mxCell>
        <mxCell id="BRBZGAeBC_l1x4wug89M-15" value="&lt;b&gt;M&lt;/b&gt;" style="text;html=1;strokeColor=none;fillColor=none;align=center;verticalAlign=middle;whiteSpace=wrap;rounded=0;" parent="1" vertex="1">
          <mxGeometry x="1540" y="2485" width="10" height="10" as="geometry" />
        </mxCell>
        <mxCell id="BRBZGAeBC_l1x4wug89M-16" value="&lt;b&gt;M&lt;/b&gt;" style="text;html=1;strokeColor=none;fillColor=none;align=center;verticalAlign=middle;whiteSpace=wrap;rounded=0;" parent="1" vertex="1">
          <mxGeometry x="2177" y="2445" width="10" height="10" as="geometry" />
        </mxCell>
        <mxCell id="BRBZGAeBC_l1x4wug89M-17" value="&lt;b&gt;M&lt;/b&gt;" style="text;html=1;strokeColor=none;fillColor=none;align=center;verticalAlign=middle;whiteSpace=wrap;rounded=0;" parent="1" vertex="1">
          <mxGeometry x="2030" y="2755" width="8" height="10" as="geometry" />
        </mxCell>
        <mxCell id="ogQs9MKbzwKdtU0zCuGk-32" value="&lt;span style=&quot;font-size: 24px;&quot;&gt;Admins_table&lt;/span&gt;" style="text;html=1;strokeColor=none;fillColor=none;align=center;verticalAlign=middle;whiteSpace=wrap;rounded=0;" parent="1" vertex="1">
          <mxGeometry x="1110" y="615" width="120" height="25" as="geometry" />
        </mxCell>
        <mxCell id="fQnaNI6id1OZZP_4K0eR-111" style="edgeStyle=orthogonalEdgeStyle;rounded=0;orthogonalLoop=1;jettySize=auto;html=1;entryX=0.5;entryY=0;entryDx=0;entryDy=0;" edge="1" parent="1" source="fQnaNI6id1OZZP_4K0eR-114" target="fQnaNI6id1OZZP_4K0eR-197">
          <mxGeometry relative="1" as="geometry" />
        </mxCell>
        <mxCell id="fQnaNI6id1OZZP_4K0eR-112" style="edgeStyle=orthogonalEdgeStyle;rounded=0;orthogonalLoop=1;jettySize=auto;html=1;entryX=1;entryY=0.5;entryDx=0;entryDy=0;exitX=0;exitY=0.25;exitDx=0;exitDy=0;" edge="1" parent="1" source="fQnaNI6id1OZZP_4K0eR-114" target="fQnaNI6id1OZZP_4K0eR-199">
          <mxGeometry relative="1" as="geometry" />
        </mxCell>
        <mxCell id="fQnaNI6id1OZZP_4K0eR-113" style="edgeStyle=orthogonalEdgeStyle;rounded=0;orthogonalLoop=1;jettySize=auto;html=1;" edge="1" parent="1" source="fQnaNI6id1OZZP_4K0eR-114">
          <mxGeometry relative="1" as="geometry">
            <mxPoint x="1714" y="1560" as="targetPoint" />
            <Array as="points">
              <mxPoint x="1814" y="1400" />
              <mxPoint x="1814" y="1560" />
            </Array>
          </mxGeometry>
        </mxCell>
        <mxCell id="fQnaNI6id1OZZP_4K0eR-114" value="&lt;b&gt;admin&lt;/b&gt;" style="rounded=1;arcSize=10;whiteSpace=wrap;html=1;align=center;fillColor=#FF66B3;" vertex="1" parent="1">
          <mxGeometry x="1824" y="1380" width="100" height="40" as="geometry" />
        </mxCell>
        <mxCell id="fQnaNI6id1OZZP_4K0eR-115" style="edgeStyle=orthogonalEdgeStyle;rounded=0;orthogonalLoop=1;jettySize=auto;html=1;exitX=0.75;exitY=1;exitDx=0;exitDy=0;entryX=0;entryY=0.5;entryDx=0;entryDy=0;" edge="1" parent="1" source="fQnaNI6id1OZZP_4K0eR-117" target="fQnaNI6id1OZZP_4K0eR-195">
          <mxGeometry relative="1" as="geometry">
            <Array as="points">
              <mxPoint x="1199" y="1510" />
              <mxPoint x="1264" y="1510" />
              <mxPoint x="1264" y="1760" />
            </Array>
          </mxGeometry>
        </mxCell>
        <mxCell id="fQnaNI6id1OZZP_4K0eR-116" style="edgeStyle=orthogonalEdgeStyle;rounded=0;orthogonalLoop=1;jettySize=auto;html=1;entryX=0;entryY=0.5;entryDx=0;entryDy=0;" edge="1" parent="1" source="fQnaNI6id1OZZP_4K0eR-117" target="fQnaNI6id1OZZP_4K0eR-193">
          <mxGeometry relative="1" as="geometry" />
        </mxCell>
        <mxCell id="fQnaNI6id1OZZP_4K0eR-117" value="&lt;b&gt;users&lt;/b&gt;" style="rounded=1;arcSize=10;whiteSpace=wrap;html=1;align=center;fillColor=#FF66B3;" vertex="1" parent="1">
          <mxGeometry x="1124" y="1440" width="100" height="40" as="geometry" />
        </mxCell>
        <mxCell id="fQnaNI6id1OZZP_4K0eR-118" value="&lt;b&gt;after_login_FIR&lt;/b&gt;" style="rounded=1;arcSize=10;whiteSpace=wrap;html=1;align=center;fillColor=#FF66B3;" vertex="1" parent="1">
          <mxGeometry x="1584" y="1281" width="100" height="40" as="geometry" />
        </mxCell>
        <mxCell id="fQnaNI6id1OZZP_4K0eR-119" value="&lt;b&gt;quick_FIR&lt;/b&gt;" style="rounded=1;arcSize=10;whiteSpace=wrap;html=1;align=center;fillColor=#FF6666;" vertex="1" parent="1">
          <mxGeometry x="1616" y="1740" width="100" height="40" as="geometry" />
        </mxCell>
        <mxCell id="fQnaNI6id1OZZP_4K0eR-120" value="&lt;u style=&quot;&quot;&gt;user_id&lt;/u&gt;" style="ellipse;whiteSpace=wrap;html=1;align=center;fillColor=#99FFFF;" vertex="1" parent="1">
          <mxGeometry x="1044" y="1310" width="100" height="40" as="geometry" />
        </mxCell>
        <mxCell id="fQnaNI6id1OZZP_4K0eR-121" value="password" style="ellipse;whiteSpace=wrap;html=1;align=center;fillColor=#99FFFF;" vertex="1" parent="1">
          <mxGeometry x="1134" y="1570" width="100" height="40" as="geometry" />
        </mxCell>
        <mxCell id="fQnaNI6id1OZZP_4K0eR-122" value="phone" style="ellipse;whiteSpace=wrap;html=1;align=center;fillColor=#99FFFF;" vertex="1" parent="1">
          <mxGeometry x="1214" y="1310" width="100" height="40" as="geometry" />
        </mxCell>
        <mxCell id="fQnaNI6id1OZZP_4K0eR-123" value="&lt;u style=&quot;&quot;&gt;email&lt;/u&gt;" style="ellipse;whiteSpace=wrap;html=1;align=center;fillColor=#99FFFF;" vertex="1" parent="1">
          <mxGeometry x="1124" y="1350" width="100" height="40" as="geometry" />
        </mxCell>
        <mxCell id="fQnaNI6id1OZZP_4K0eR-124" value="dob" style="ellipse;whiteSpace=wrap;html=1;align=center;fillColor=#99FFFF;" vertex="1" parent="1">
          <mxGeometry x="954" y="1500" width="100" height="40" as="geometry" />
        </mxCell>
        <mxCell id="fQnaNI6id1OZZP_4K0eR-125" value="name" style="ellipse;whiteSpace=wrap;html=1;align=center;fillColor=#99FFFF;" vertex="1" parent="1">
          <mxGeometry x="994" y="1380" width="100" height="40" as="geometry" />
        </mxCell>
        <mxCell id="fQnaNI6id1OZZP_4K0eR-126" value="&lt;u&gt;fir_id&lt;/u&gt;" style="ellipse;whiteSpace=wrap;html=1;align=center;fillColor=#99FFFF;" vertex="1" parent="1">
          <mxGeometry x="1453" y="1690" width="100" height="40" as="geometry" />
        </mxCell>
        <mxCell id="fQnaNI6id1OZZP_4K0eR-127" value="description" style="ellipse;whiteSpace=wrap;html=1;align=center;fillColor=#99FFFF;" vertex="1" parent="1">
          <mxGeometry x="1766.5" y="1820" width="100" height="40" as="geometry" />
        </mxCell>
        <mxCell id="fQnaNI6id1OZZP_4K0eR-128" value="category" style="ellipse;whiteSpace=wrap;html=1;align=center;fillColor=#99FFFF;" vertex="1" parent="1">
          <mxGeometry x="1786.5" y="1764" width="100" height="40" as="geometry" />
        </mxCell>
        <mxCell id="fQnaNI6id1OZZP_4K0eR-129" value="name" style="ellipse;whiteSpace=wrap;html=1;align=center;fillColor=#99FFFF;" vertex="1" parent="1">
          <mxGeometry x="1605" y="1620" width="100" height="40" as="geometry" />
        </mxCell>
        <mxCell id="fQnaNI6id1OZZP_4K0eR-130" value="emergency_contact" style="ellipse;whiteSpace=wrap;html=1;align=center;fillColor=#99FFFF;" vertex="1" parent="1">
          <mxGeometry x="1704" y="1640" width="120" height="40" as="geometry" />
        </mxCell>
        <mxCell id="fQnaNI6id1OZZP_4K0eR-131" value="name" style="ellipse;whiteSpace=wrap;html=1;align=center;fillColor=#99FFFF;" vertex="1" parent="1">
          <mxGeometry x="1464" y="1300" width="50" height="40" as="geometry" />
        </mxCell>
        <mxCell id="fQnaNI6id1OZZP_4K0eR-132" value="description" style="ellipse;whiteSpace=wrap;html=1;align=center;fillColor=#99FFFF;" vertex="1" parent="1">
          <mxGeometry x="1762.5" y="1270" width="77" height="40" as="geometry" />
        </mxCell>
        <mxCell id="fQnaNI6id1OZZP_4K0eR-133" value="&lt;u&gt;admin_id&lt;/u&gt;" style="ellipse;whiteSpace=wrap;html=1;align=center;fillColor=#99FFFF;" vertex="1" parent="1">
          <mxGeometry x="2014" y="1410" width="100" height="40" as="geometry" />
        </mxCell>
        <mxCell id="fQnaNI6id1OZZP_4K0eR-134" value="admin_email" style="ellipse;whiteSpace=wrap;html=1;align=center;fillColor=#99FFFF;" vertex="1" parent="1">
          <mxGeometry x="2004" y="1310" width="100" height="40" as="geometry" />
        </mxCell>
        <mxCell id="fQnaNI6id1OZZP_4K0eR-135" value="admin_name" style="ellipse;whiteSpace=wrap;html=1;align=center;fillColor=#99FFFF;" vertex="1" parent="1">
          <mxGeometry x="2014" y="1360" width="100" height="40" as="geometry" />
        </mxCell>
        <mxCell id="fQnaNI6id1OZZP_4K0eR-136" value="landmark&amp;nbsp;" style="ellipse;whiteSpace=wrap;html=1;align=center;fillColor=#99FFFF;" vertex="1" parent="1">
          <mxGeometry x="1499" y="1070" width="82" height="40" as="geometry" />
        </mxCell>
        <mxCell id="fQnaNI6id1OZZP_4K0eR-137" value="emergency_contact" style="ellipse;whiteSpace=wrap;html=1;align=center;fillColor=#99FFFF;" vertex="1" parent="1">
          <mxGeometry x="1465.5" y="1345" width="117" height="40" as="geometry" />
        </mxCell>
        <mxCell id="fQnaNI6id1OZZP_4K0eR-138" value="category" style="ellipse;whiteSpace=wrap;html=1;align=center;fillColor=#99FFFF;" vertex="1" parent="1">
          <mxGeometry x="1705" y="1310" width="69" height="40" as="geometry" />
        </mxCell>
        <mxCell id="fQnaNI6id1OZZP_4K0eR-139" value="FIR_status" style="ellipse;whiteSpace=wrap;html=1;align=center;fillColor=#99FFFF;" vertex="1" parent="1">
          <mxGeometry x="1635" y="1090" width="70" height="31" as="geometry" />
        </mxCell>
        <mxCell id="fQnaNI6id1OZZP_4K0eR-140" value="document_details" style="ellipse;whiteSpace=wrap;html=1;align=center;fillColor=#99FFFF;" vertex="1" parent="1">
          <mxGeometry x="1044" y="1620" width="120" height="40" as="geometry" />
        </mxCell>
        <mxCell id="fQnaNI6id1OZZP_4K0eR-141" value="document_type" style="ellipse;whiteSpace=wrap;html=1;align=center;fillColor=#99FFFF;" vertex="1" parent="1">
          <mxGeometry x="994" y="1570" width="100" height="40" as="geometry" />
        </mxCell>
        <mxCell id="fQnaNI6id1OZZP_4K0eR-142" value="address" style="ellipse;whiteSpace=wrap;html=1;align=center;fillColor=#99FFFF;" vertex="1" parent="1">
          <mxGeometry x="954" y="1440" width="100" height="40" as="geometry" />
        </mxCell>
        <mxCell id="fQnaNI6id1OZZP_4K0eR-143" value="" style="endArrow=none;html=1;rounded=0;exitX=0.068;exitY=-0.062;exitDx=0;exitDy=0;exitPerimeter=0;entryX=0.437;entryY=0.987;entryDx=0;entryDy=0;entryPerimeter=0;" edge="1" parent="1" source="fQnaNI6id1OZZP_4K0eR-117" target="fQnaNI6id1OZZP_4K0eR-120">
          <mxGeometry width="50" height="50" relative="1" as="geometry">
            <mxPoint x="1114" y="1470" as="sourcePoint" />
            <mxPoint x="1164" y="1420" as="targetPoint" />
          </mxGeometry>
        </mxCell>
        <mxCell id="fQnaNI6id1OZZP_4K0eR-144" value="" style="endArrow=none;html=1;rounded=0;entryX=0.366;entryY=0.989;entryDx=0;entryDy=0;entryPerimeter=0;exitX=0.433;exitY=-0.024;exitDx=0;exitDy=0;exitPerimeter=0;" edge="1" parent="1" source="fQnaNI6id1OZZP_4K0eR-117" target="fQnaNI6id1OZZP_4K0eR-123">
          <mxGeometry width="50" height="50" relative="1" as="geometry">
            <mxPoint x="1214" y="1480" as="sourcePoint" />
            <mxPoint x="1174" y="1430" as="targetPoint" />
          </mxGeometry>
        </mxCell>
        <mxCell id="fQnaNI6id1OZZP_4K0eR-145" value="" style="endArrow=none;html=1;rounded=0;exitX=0.652;exitY=-0.062;exitDx=0;exitDy=0;entryX=0.346;entryY=0.976;entryDx=0;entryDy=0;entryPerimeter=0;exitPerimeter=0;" edge="1" parent="1" source="fQnaNI6id1OZZP_4K0eR-117" target="fQnaNI6id1OZZP_4K0eR-122">
          <mxGeometry width="50" height="50" relative="1" as="geometry">
            <mxPoint x="1354" y="1500" as="sourcePoint" />
            <mxPoint x="1404" y="1450" as="targetPoint" />
          </mxGeometry>
        </mxCell>
        <mxCell id="fQnaNI6id1OZZP_4K0eR-146" value="" style="endArrow=none;html=1;rounded=0;exitX=0.015;exitY=0.153;exitDx=0;exitDy=0;exitPerimeter=0;" edge="1" parent="1" source="fQnaNI6id1OZZP_4K0eR-117" target="fQnaNI6id1OZZP_4K0eR-125">
          <mxGeometry width="50" height="50" relative="1" as="geometry">
            <mxPoint x="1354" y="1500" as="sourcePoint" />
            <mxPoint x="1404" y="1450" as="targetPoint" />
          </mxGeometry>
        </mxCell>
        <mxCell id="fQnaNI6id1OZZP_4K0eR-147" value="" style="endArrow=none;html=1;rounded=0;exitX=0.119;exitY=1.034;exitDx=0;exitDy=0;exitPerimeter=0;entryX=0.762;entryY=-0.044;entryDx=0;entryDy=0;entryPerimeter=0;" edge="1" parent="1" source="fQnaNI6id1OZZP_4K0eR-117" target="fQnaNI6id1OZZP_4K0eR-141">
          <mxGeometry width="50" height="50" relative="1" as="geometry">
            <mxPoint x="1136" y="1506" as="sourcePoint" />
            <mxPoint x="1070" y="1429" as="targetPoint" />
          </mxGeometry>
        </mxCell>
        <mxCell id="fQnaNI6id1OZZP_4K0eR-148" value="" style="endArrow=none;html=1;rounded=0;exitX=-0.025;exitY=0.902;exitDx=0;exitDy=0;exitPerimeter=0;entryX=1;entryY=0.5;entryDx=0;entryDy=0;" edge="1" parent="1" source="fQnaNI6id1OZZP_4K0eR-117" target="fQnaNI6id1OZZP_4K0eR-124">
          <mxGeometry width="50" height="50" relative="1" as="geometry">
            <mxPoint x="1146" y="1516" as="sourcePoint" />
            <mxPoint x="1080" y="1439" as="targetPoint" />
          </mxGeometry>
        </mxCell>
        <mxCell id="fQnaNI6id1OZZP_4K0eR-149" value="" style="endArrow=none;html=1;rounded=0;exitX=-0.025;exitY=0.661;exitDx=0;exitDy=0;exitPerimeter=0;entryX=1.014;entryY=0.654;entryDx=0;entryDy=0;entryPerimeter=0;" edge="1" parent="1" source="fQnaNI6id1OZZP_4K0eR-117" target="fQnaNI6id1OZZP_4K0eR-142">
          <mxGeometry width="50" height="50" relative="1" as="geometry">
            <mxPoint x="1156" y="1526" as="sourcePoint" />
            <mxPoint x="1090" y="1449" as="targetPoint" />
          </mxGeometry>
        </mxCell>
        <mxCell id="fQnaNI6id1OZZP_4K0eR-150" value="" style="endArrow=none;html=1;rounded=0;entryX=0.317;entryY=1.03;entryDx=0;entryDy=0;exitX=0.459;exitY=-0.01;exitDx=0;exitDy=0;exitPerimeter=0;entryPerimeter=0;" edge="1" parent="1" source="fQnaNI6id1OZZP_4K0eR-140" target="fQnaNI6id1OZZP_4K0eR-117">
          <mxGeometry width="50" height="50" relative="1" as="geometry">
            <mxPoint x="1354" y="1500" as="sourcePoint" />
            <mxPoint x="1404" y="1450" as="targetPoint" />
          </mxGeometry>
        </mxCell>
        <mxCell id="fQnaNI6id1OZZP_4K0eR-151" value="" style="endArrow=none;html=1;rounded=0;entryX=0.5;entryY=1;entryDx=0;entryDy=0;exitX=0.334;exitY=-0.023;exitDx=0;exitDy=0;exitPerimeter=0;" edge="1" parent="1" source="fQnaNI6id1OZZP_4K0eR-121" target="fQnaNI6id1OZZP_4K0eR-117">
          <mxGeometry width="50" height="50" relative="1" as="geometry">
            <mxPoint x="1354" y="1500" as="sourcePoint" />
            <mxPoint x="1404" y="1450" as="targetPoint" />
          </mxGeometry>
        </mxCell>
        <mxCell id="fQnaNI6id1OZZP_4K0eR-152" value="registration_date" style="ellipse;whiteSpace=wrap;html=1;align=center;fillColor=#99FFFF;" vertex="1" parent="1">
          <mxGeometry x="1272" y="1370" width="116" height="40" as="geometry" />
        </mxCell>
        <mxCell id="fQnaNI6id1OZZP_4K0eR-153" value="" style="endArrow=none;html=1;rounded=0;exitX=0.876;exitY=-0.036;exitDx=0;exitDy=0;entryX=-0.03;entryY=0.668;entryDx=0;entryDy=0;entryPerimeter=0;exitPerimeter=0;" edge="1" parent="1" source="fQnaNI6id1OZZP_4K0eR-117" target="fQnaNI6id1OZZP_4K0eR-152">
          <mxGeometry width="50" height="50" relative="1" as="geometry">
            <mxPoint x="1209" y="1468" as="sourcePoint" />
            <mxPoint x="1319" y="1409" as="targetPoint" />
          </mxGeometry>
        </mxCell>
        <mxCell id="fQnaNI6id1OZZP_4K0eR-154" value="FIR_STATUS" style="ellipse;whiteSpace=wrap;html=1;align=center;fillColor=#99FFFF;" vertex="1" parent="1">
          <mxGeometry x="1524" y="1650" width="100" height="40" as="geometry" />
        </mxCell>
        <mxCell id="fQnaNI6id1OZZP_4K0eR-155" value="FIR_REPORT_DATE" style="ellipse;whiteSpace=wrap;html=1;align=center;fillColor=#99FFFF;" vertex="1" parent="1">
          <mxGeometry x="1762.5" y="1690" width="130" height="40" as="geometry" />
        </mxCell>
        <mxCell id="fQnaNI6id1OZZP_4K0eR-156" value="where_occured_city" style="ellipse;whiteSpace=wrap;html=1;align=center;fillColor=#99FFFF;" vertex="1" parent="1">
          <mxGeometry x="1524" y="1870" width="160" height="40" as="geometry" />
        </mxCell>
        <mxCell id="fQnaNI6id1OZZP_4K0eR-157" value="when_occured_date" style="ellipse;whiteSpace=wrap;html=1;align=center;fillColor=#99FFFF;" vertex="1" parent="1">
          <mxGeometry x="1729" y="1870" width="140" height="40" as="geometry" />
        </mxCell>
        <mxCell id="fQnaNI6id1OZZP_4K0eR-158" value="when_occurred_time" style="ellipse;whiteSpace=wrap;html=1;align=center;fillColor=#99FFFF;" vertex="1" parent="1">
          <mxGeometry x="1635" y="1910" width="140" height="40" as="geometry" />
        </mxCell>
        <mxCell id="fQnaNI6id1OZZP_4K0eR-159" value="" style="endArrow=none;html=1;rounded=0;entryX=0.25;entryY=1;entryDx=0;entryDy=0;" edge="1" parent="1" source="fQnaNI6id1OZZP_4K0eR-156" target="fQnaNI6id1OZZP_4K0eR-119">
          <mxGeometry width="50" height="50" relative="1" as="geometry">
            <mxPoint x="1609" y="1840" as="sourcePoint" />
            <mxPoint x="1659" y="1790" as="targetPoint" />
          </mxGeometry>
        </mxCell>
        <mxCell id="fQnaNI6id1OZZP_4K0eR-160" value="" style="endArrow=none;html=1;rounded=0;entryX=0;entryY=0;entryDx=0;entryDy=0;exitX=0.987;exitY=0.592;exitDx=0;exitDy=0;exitPerimeter=0;" edge="1" parent="1" source="fQnaNI6id1OZZP_4K0eR-126" target="fQnaNI6id1OZZP_4K0eR-119">
          <mxGeometry width="50" height="50" relative="1" as="geometry">
            <mxPoint x="1554" y="1720" as="sourcePoint" />
            <mxPoint x="1659" y="1790" as="targetPoint" />
          </mxGeometry>
        </mxCell>
        <mxCell id="fQnaNI6id1OZZP_4K0eR-161" value="" style="endArrow=none;html=1;rounded=0;entryX=0.5;entryY=0;entryDx=0;entryDy=0;exitX=0.32;exitY=1.001;exitDx=0;exitDy=0;exitPerimeter=0;" edge="1" parent="1" source="fQnaNI6id1OZZP_4K0eR-119" target="fQnaNI6id1OZZP_4K0eR-158">
          <mxGeometry width="50" height="50" relative="1" as="geometry">
            <mxPoint x="1609" y="1840" as="sourcePoint" />
            <mxPoint x="1659" y="1790" as="targetPoint" />
          </mxGeometry>
        </mxCell>
        <mxCell id="fQnaNI6id1OZZP_4K0eR-162" value="" style="endArrow=none;html=1;rounded=0;exitX=0;exitY=0.5;exitDx=0;exitDy=0;entryX=1;entryY=0.5;entryDx=0;entryDy=0;entryPerimeter=0;" edge="1" parent="1" source="fQnaNI6id1OZZP_4K0eR-128" target="fQnaNI6id1OZZP_4K0eR-119">
          <mxGeometry width="50" height="50" relative="1" as="geometry">
            <mxPoint x="1609" y="1840" as="sourcePoint" />
            <mxPoint x="1659" y="1790" as="targetPoint" />
          </mxGeometry>
        </mxCell>
        <mxCell id="fQnaNI6id1OZZP_4K0eR-163" value="" style="endArrow=none;html=1;rounded=0;entryX=0;entryY=0;entryDx=0;entryDy=0;exitX=0.5;exitY=1;exitDx=0;exitDy=0;" edge="1" parent="1" source="fQnaNI6id1OZZP_4K0eR-119" target="fQnaNI6id1OZZP_4K0eR-157">
          <mxGeometry width="50" height="50" relative="1" as="geometry">
            <mxPoint x="1609" y="1840" as="sourcePoint" />
            <mxPoint x="1659" y="1790" as="targetPoint" />
          </mxGeometry>
        </mxCell>
        <mxCell id="fQnaNI6id1OZZP_4K0eR-164" value="" style="endArrow=none;html=1;rounded=0;entryX=0.013;entryY=0.335;entryDx=0;entryDy=0;entryPerimeter=0;exitX=0.88;exitY=1;exitDx=0;exitDy=0;exitPerimeter=0;" edge="1" parent="1" source="fQnaNI6id1OZZP_4K0eR-119" target="fQnaNI6id1OZZP_4K0eR-127">
          <mxGeometry width="50" height="50" relative="1" as="geometry">
            <mxPoint x="1609" y="1840" as="sourcePoint" />
            <mxPoint x="1659" y="1790" as="targetPoint" />
          </mxGeometry>
        </mxCell>
        <mxCell id="fQnaNI6id1OZZP_4K0eR-165" value="" style="endArrow=none;html=1;rounded=0;entryX=0.024;entryY=0.659;entryDx=0;entryDy=0;entryPerimeter=0;exitX=0.831;exitY=-0.054;exitDx=0;exitDy=0;exitPerimeter=0;" edge="1" parent="1" source="fQnaNI6id1OZZP_4K0eR-119" target="fQnaNI6id1OZZP_4K0eR-155">
          <mxGeometry width="50" height="50" relative="1" as="geometry">
            <mxPoint x="1609" y="1840" as="sourcePoint" />
            <mxPoint x="1782.1599999999999" y="1740.04" as="targetPoint" />
          </mxGeometry>
        </mxCell>
        <mxCell id="fQnaNI6id1OZZP_4K0eR-166" value="" style="endArrow=none;html=1;rounded=0;exitX=0.43;exitY=1.001;exitDx=0;exitDy=0;exitPerimeter=0;entryX=0.5;entryY=0;entryDx=0;entryDy=0;" edge="1" parent="1" source="fQnaNI6id1OZZP_4K0eR-130" target="fQnaNI6id1OZZP_4K0eR-119">
          <mxGeometry width="50" height="50" relative="1" as="geometry">
            <mxPoint x="1609" y="1840" as="sourcePoint" />
            <mxPoint x="1659" y="1770" as="targetPoint" />
          </mxGeometry>
        </mxCell>
        <mxCell id="fQnaNI6id1OZZP_4K0eR-167" value="" style="endArrow=none;html=1;rounded=0;exitX=0.768;exitY=0.881;exitDx=0;exitDy=0;exitPerimeter=0;entryX=0.25;entryY=0;entryDx=0;entryDy=0;" edge="1" parent="1" source="fQnaNI6id1OZZP_4K0eR-129" target="fQnaNI6id1OZZP_4K0eR-119">
          <mxGeometry width="50" height="50" relative="1" as="geometry">
            <mxPoint x="1609" y="1840" as="sourcePoint" />
            <mxPoint x="1659" y="1790" as="targetPoint" />
          </mxGeometry>
        </mxCell>
        <mxCell id="fQnaNI6id1OZZP_4K0eR-168" value="" style="endArrow=none;html=1;rounded=0;entryX=1;entryY=1;entryDx=0;entryDy=0;exitX=0.126;exitY=-0.025;exitDx=0;exitDy=0;exitPerimeter=0;" edge="1" parent="1" source="fQnaNI6id1OZZP_4K0eR-119" target="fQnaNI6id1OZZP_4K0eR-154">
          <mxGeometry width="50" height="50" relative="1" as="geometry">
            <mxPoint x="1609" y="1840" as="sourcePoint" />
            <mxPoint x="1659" y="1790" as="targetPoint" />
          </mxGeometry>
        </mxCell>
        <mxCell id="fQnaNI6id1OZZP_4K0eR-169" value="when_occurred_time" style="ellipse;whiteSpace=wrap;html=1;align=center;fillColor=#99FFFF;" vertex="1" parent="1">
          <mxGeometry x="1567" y="1040" width="127" height="40" as="geometry" />
        </mxCell>
        <mxCell id="fQnaNI6id1OZZP_4K0eR-170" value="when_occured_date" style="ellipse;whiteSpace=wrap;html=1;align=center;fillColor=#99FFFF;" vertex="1" parent="1">
          <mxGeometry x="1766.5" y="1220" width="140" height="40" as="geometry" />
        </mxCell>
        <mxCell id="fQnaNI6id1OZZP_4K0eR-171" value="FIR_REPORT_DATE" style="ellipse;whiteSpace=wrap;html=1;align=center;fillColor=#99FFFF;" vertex="1" parent="1">
          <mxGeometry x="1762.5" y="1170" width="148" height="40" as="geometry" />
        </mxCell>
        <mxCell id="fQnaNI6id1OZZP_4K0eR-172" value="&lt;u&gt;fir_id&lt;/u&gt;" style="ellipse;whiteSpace=wrap;html=1;align=center;fillColor=#99FFFF;" vertex="1" parent="1">
          <mxGeometry x="1449" y="1250" width="59" height="40" as="geometry" />
        </mxCell>
        <mxCell id="fQnaNI6id1OZZP_4K0eR-173" value="&lt;u&gt;user_email&lt;/u&gt;" style="ellipse;whiteSpace=wrap;html=1;align=center;fillColor=#99FFFF;" vertex="1" parent="1">
          <mxGeometry x="1712" y="1110" width="67" height="50" as="geometry" />
        </mxCell>
        <mxCell id="fQnaNI6id1OZZP_4K0eR-174" value="" style="endArrow=none;html=1;rounded=0;entryX=0;entryY=0.5;entryDx=0;entryDy=0;" edge="1" parent="1" source="fQnaNI6id1OZZP_4K0eR-118" target="fQnaNI6id1OZZP_4K0eR-170">
          <mxGeometry width="50" height="50" relative="1" as="geometry">
            <mxPoint x="1780.5" y="1321" as="sourcePoint" />
            <mxPoint x="1830.5" y="1271" as="targetPoint" />
          </mxGeometry>
        </mxCell>
        <mxCell id="fQnaNI6id1OZZP_4K0eR-175" value="" style="endArrow=none;html=1;rounded=0;entryX=0;entryY=0.5;entryDx=0;entryDy=0;exitX=0.865;exitY=-0.025;exitDx=0;exitDy=0;exitPerimeter=0;" edge="1" parent="1" source="fQnaNI6id1OZZP_4K0eR-118" target="fQnaNI6id1OZZP_4K0eR-171">
          <mxGeometry width="50" height="50" relative="1" as="geometry">
            <mxPoint x="1780.5" y="1321" as="sourcePoint" />
            <mxPoint x="1830.5" y="1271" as="targetPoint" />
          </mxGeometry>
        </mxCell>
        <mxCell id="fQnaNI6id1OZZP_4K0eR-176" value="" style="endArrow=none;html=1;rounded=0;entryX=0.5;entryY=1;entryDx=0;entryDy=0;exitX=0.71;exitY=-0.02;exitDx=0;exitDy=0;exitPerimeter=0;" edge="1" parent="1" source="fQnaNI6id1OZZP_4K0eR-118" target="fQnaNI6id1OZZP_4K0eR-139">
          <mxGeometry width="50" height="50" relative="1" as="geometry">
            <mxPoint x="1780.5" y="1321" as="sourcePoint" />
            <mxPoint x="1830.5" y="1271" as="targetPoint" />
          </mxGeometry>
        </mxCell>
        <mxCell id="fQnaNI6id1OZZP_4K0eR-177" value="" style="endArrow=none;html=1;rounded=0;entryX=0.457;entryY=0.977;entryDx=0;entryDy=0;entryPerimeter=0;exitX=0.5;exitY=0;exitDx=0;exitDy=0;" edge="1" parent="1" source="fQnaNI6id1OZZP_4K0eR-118" target="fQnaNI6id1OZZP_4K0eR-169">
          <mxGeometry width="50" height="50" relative="1" as="geometry">
            <mxPoint x="1780.5" y="1321" as="sourcePoint" />
            <mxPoint x="1830.5" y="1271" as="targetPoint" />
          </mxGeometry>
        </mxCell>
        <mxCell id="fQnaNI6id1OZZP_4K0eR-178" value="" style="endArrow=none;html=1;rounded=0;entryX=1;entryY=1;entryDx=0;entryDy=0;exitX=0.402;exitY=-0.004;exitDx=0;exitDy=0;exitPerimeter=0;" edge="1" parent="1" source="fQnaNI6id1OZZP_4K0eR-118" target="fQnaNI6id1OZZP_4K0eR-136">
          <mxGeometry width="50" height="50" relative="1" as="geometry">
            <mxPoint x="1624" y="1280" as="sourcePoint" />
            <mxPoint x="1830.5" y="1271" as="targetPoint" />
          </mxGeometry>
        </mxCell>
        <mxCell id="fQnaNI6id1OZZP_4K0eR-179" value="" style="endArrow=none;html=1;rounded=0;entryX=1;entryY=0.5;entryDx=0;entryDy=0;exitX=0;exitY=0.25;exitDx=0;exitDy=0;" edge="1" parent="1" source="fQnaNI6id1OZZP_4K0eR-118" target="fQnaNI6id1OZZP_4K0eR-172">
          <mxGeometry width="50" height="50" relative="1" as="geometry">
            <mxPoint x="1780.5" y="1321" as="sourcePoint" />
            <mxPoint x="1830.5" y="1271" as="targetPoint" />
          </mxGeometry>
        </mxCell>
        <mxCell id="fQnaNI6id1OZZP_4K0eR-180" value="" style="endArrow=none;html=1;rounded=0;entryX=0.99;entryY=0.393;entryDx=0;entryDy=0;entryPerimeter=0;exitX=0;exitY=0.5;exitDx=0;exitDy=0;" edge="1" parent="1" source="fQnaNI6id1OZZP_4K0eR-118" target="fQnaNI6id1OZZP_4K0eR-131">
          <mxGeometry width="50" height="50" relative="1" as="geometry">
            <mxPoint x="1780.5" y="1321" as="sourcePoint" />
            <mxPoint x="1830.5" y="1271" as="targetPoint" />
          </mxGeometry>
        </mxCell>
        <mxCell id="fQnaNI6id1OZZP_4K0eR-181" value="" style="endArrow=none;html=1;rounded=0;entryX=1;entryY=0;entryDx=0;entryDy=0;exitX=0;exitY=0.75;exitDx=0;exitDy=0;" edge="1" parent="1" source="fQnaNI6id1OZZP_4K0eR-118" target="fQnaNI6id1OZZP_4K0eR-137">
          <mxGeometry width="50" height="50" relative="1" as="geometry">
            <mxPoint x="1780.5" y="1321" as="sourcePoint" />
            <mxPoint x="1830.5" y="1271" as="targetPoint" />
          </mxGeometry>
        </mxCell>
        <mxCell id="fQnaNI6id1OZZP_4K0eR-182" value="" style="endArrow=none;html=1;rounded=0;entryX=0.5;entryY=1;entryDx=0;entryDy=0;exitX=0.75;exitY=0;exitDx=0;exitDy=0;" edge="1" parent="1" source="fQnaNI6id1OZZP_4K0eR-118" target="fQnaNI6id1OZZP_4K0eR-173">
          <mxGeometry width="50" height="50" relative="1" as="geometry">
            <mxPoint x="1780.5" y="1321" as="sourcePoint" />
            <mxPoint x="1830.5" y="1271" as="targetPoint" />
          </mxGeometry>
        </mxCell>
        <mxCell id="fQnaNI6id1OZZP_4K0eR-183" value="" style="endArrow=none;html=1;rounded=0;entryX=0.025;entryY=0.351;entryDx=0;entryDy=0;exitX=0.999;exitY=0.675;exitDx=0;exitDy=0;exitPerimeter=0;entryPerimeter=0;" edge="1" parent="1" source="fQnaNI6id1OZZP_4K0eR-118" target="fQnaNI6id1OZZP_4K0eR-138">
          <mxGeometry width="50" height="50" relative="1" as="geometry">
            <mxPoint x="1780.5" y="1321" as="sourcePoint" />
            <mxPoint x="1830.5" y="1271" as="targetPoint" />
          </mxGeometry>
        </mxCell>
        <mxCell id="fQnaNI6id1OZZP_4K0eR-184" value="" style="endArrow=none;html=1;rounded=0;entryX=0;entryY=0.5;entryDx=0;entryDy=0;exitX=1;exitY=0.25;exitDx=0;exitDy=0;" edge="1" parent="1" source="fQnaNI6id1OZZP_4K0eR-118" target="fQnaNI6id1OZZP_4K0eR-132">
          <mxGeometry width="50" height="50" relative="1" as="geometry">
            <mxPoint x="1780.5" y="1321" as="sourcePoint" />
            <mxPoint x="1830.5" y="1271" as="targetPoint" />
          </mxGeometry>
        </mxCell>
        <mxCell id="fQnaNI6id1OZZP_4K0eR-185" value="admin_password" style="ellipse;whiteSpace=wrap;html=1;align=center;fillColor=#99FFFF;" vertex="1" parent="1">
          <mxGeometry x="1974" y="1260" width="120" height="40" as="geometry" />
        </mxCell>
        <mxCell id="fQnaNI6id1OZZP_4K0eR-186" value="" style="endArrow=none;html=1;rounded=0;entryX=1;entryY=0.75;entryDx=0;entryDy=0;exitX=0;exitY=0.375;exitDx=0;exitDy=0;exitPerimeter=0;" edge="1" parent="1" source="fQnaNI6id1OZZP_4K0eR-133" target="fQnaNI6id1OZZP_4K0eR-114">
          <mxGeometry width="50" height="50" relative="1" as="geometry">
            <mxPoint x="2024" y="1460" as="sourcePoint" />
            <mxPoint x="2074" y="1410" as="targetPoint" />
          </mxGeometry>
        </mxCell>
        <mxCell id="fQnaNI6id1OZZP_4K0eR-187" value="" style="endArrow=none;html=1;rounded=0;entryX=0;entryY=1;entryDx=0;entryDy=0;exitX=0.648;exitY=0.025;exitDx=0;exitDy=0;exitPerimeter=0;" edge="1" parent="1" source="fQnaNI6id1OZZP_4K0eR-114" target="fQnaNI6id1OZZP_4K0eR-185">
          <mxGeometry width="50" height="50" relative="1" as="geometry">
            <mxPoint x="1864" y="1370" as="sourcePoint" />
            <mxPoint x="2074" y="1410" as="targetPoint" />
          </mxGeometry>
        </mxCell>
        <mxCell id="fQnaNI6id1OZZP_4K0eR-188" value="" style="endArrow=none;html=1;rounded=0;entryX=0;entryY=1;entryDx=0;entryDy=0;exitX=0.75;exitY=0;exitDx=0;exitDy=0;" edge="1" parent="1" source="fQnaNI6id1OZZP_4K0eR-114" target="fQnaNI6id1OZZP_4K0eR-134">
          <mxGeometry width="50" height="50" relative="1" as="geometry">
            <mxPoint x="2024" y="1460" as="sourcePoint" />
            <mxPoint x="2074" y="1410" as="targetPoint" />
          </mxGeometry>
        </mxCell>
        <mxCell id="fQnaNI6id1OZZP_4K0eR-189" value="" style="endArrow=none;html=1;rounded=0;exitX=1;exitY=0.5;exitDx=0;exitDy=0;entryX=0;entryY=0.5;entryDx=0;entryDy=0;" edge="1" parent="1" source="fQnaNI6id1OZZP_4K0eR-114" target="fQnaNI6id1OZZP_4K0eR-135">
          <mxGeometry width="50" height="50" relative="1" as="geometry">
            <mxPoint x="2024" y="1460" as="sourcePoint" />
            <mxPoint x="2074" y="1410" as="targetPoint" />
          </mxGeometry>
        </mxCell>
        <mxCell id="fQnaNI6id1OZZP_4K0eR-190" style="edgeStyle=orthogonalEdgeStyle;rounded=0;orthogonalLoop=1;jettySize=auto;html=1;exitX=-0.007;exitY=0.503;exitDx=0;exitDy=0;exitPerimeter=0;entryX=1;entryY=0.75;entryDx=0;entryDy=0;" edge="1" parent="1" source="fQnaNI6id1OZZP_4K0eR-191" target="fQnaNI6id1OZZP_4K0eR-117">
          <mxGeometry relative="1" as="geometry">
            <mxPoint x="1573.996" y="1475.7599999999998" as="sourcePoint" />
            <mxPoint x="1234" y="1480" as="targetPoint" />
            <Array as="points" />
          </mxGeometry>
        </mxCell>
        <mxCell id="fQnaNI6id1OZZP_4K0eR-191" value="Manages" style="shape=rhombus;perimeter=rhombusPerimeter;whiteSpace=wrap;html=1;align=center;fillColor=#4DFFCF;" vertex="1" parent="1">
          <mxGeometry x="1514" y="1530" width="198" height="60" as="geometry" />
        </mxCell>
        <mxCell id="fQnaNI6id1OZZP_4K0eR-192" style="edgeStyle=orthogonalEdgeStyle;rounded=0;orthogonalLoop=1;jettySize=auto;html=1;entryX=0.25;entryY=1;entryDx=0;entryDy=0;" edge="1" parent="1" source="fQnaNI6id1OZZP_4K0eR-193" target="fQnaNI6id1OZZP_4K0eR-118">
          <mxGeometry relative="1" as="geometry" />
        </mxCell>
        <mxCell id="fQnaNI6id1OZZP_4K0eR-193" value="File&amp;nbsp;&lt;br&gt;Complaint" style="shape=rhombus;perimeter=rhombusPerimeter;whiteSpace=wrap;html=1;align=center;fillColor=#4DFFCF;" vertex="1" parent="1">
          <mxGeometry x="1548" y="1430" width="121" height="60" as="geometry" />
        </mxCell>
        <mxCell id="fQnaNI6id1OZZP_4K0eR-194" style="edgeStyle=orthogonalEdgeStyle;rounded=0;orthogonalLoop=1;jettySize=auto;html=1;entryX=0;entryY=0.5;entryDx=0;entryDy=0;" edge="1" parent="1" source="fQnaNI6id1OZZP_4K0eR-195" target="fQnaNI6id1OZZP_4K0eR-119">
          <mxGeometry relative="1" as="geometry" />
        </mxCell>
        <mxCell id="fQnaNI6id1OZZP_4K0eR-195" value="File&amp;nbsp;&lt;br&gt;Complaint" style="shape=rhombus;perimeter=rhombusPerimeter;whiteSpace=wrap;html=1;align=center;fillColor=#4DFFCF;" vertex="1" parent="1">
          <mxGeometry x="1304" y="1730" width="120" height="60" as="geometry" />
        </mxCell>
        <mxCell id="fQnaNI6id1OZZP_4K0eR-196" style="edgeStyle=orthogonalEdgeStyle;rounded=0;orthogonalLoop=1;jettySize=auto;html=1;entryX=1;entryY=0.25;entryDx=0;entryDy=0;" edge="1" parent="1" source="fQnaNI6id1OZZP_4K0eR-197" target="fQnaNI6id1OZZP_4K0eR-119">
          <mxGeometry relative="1" as="geometry">
            <Array as="points">
              <mxPoint x="1924" y="1750" />
            </Array>
          </mxGeometry>
        </mxCell>
        <mxCell id="fQnaNI6id1OZZP_4K0eR-197" value="Manages" style="shape=rhombus;perimeter=rhombusPerimeter;whiteSpace=wrap;html=1;align=center;fillColor=#4DFFCF;" vertex="1" parent="1">
          <mxGeometry x="1864" y="1590" width="120" height="60" as="geometry" />
        </mxCell>
        <mxCell id="fQnaNI6id1OZZP_4K0eR-198" style="edgeStyle=orthogonalEdgeStyle;rounded=0;orthogonalLoop=1;jettySize=auto;html=1;entryX=0.406;entryY=0.96;entryDx=0;entryDy=0;entryPerimeter=0;exitX=0;exitY=0.5;exitDx=0;exitDy=0;" edge="1" parent="1" source="fQnaNI6id1OZZP_4K0eR-199" target="fQnaNI6id1OZZP_4K0eR-118">
          <mxGeometry relative="1" as="geometry">
            <mxPoint x="1624" y="1330.0000000000002" as="targetPoint" />
            <Array as="points">
              <mxPoint x="1625" y="1390" />
            </Array>
          </mxGeometry>
        </mxCell>
        <mxCell id="fQnaNI6id1OZZP_4K0eR-199" value="Manages" style="shape=rhombus;perimeter=rhombusPerimeter;whiteSpace=wrap;html=1;align=center;fillColor=#4DFFCF;" vertex="1" parent="1">
          <mxGeometry x="1654" y="1360" width="120" height="60" as="geometry" />
        </mxCell>
        <mxCell id="fQnaNI6id1OZZP_4K0eR-200" value="1" style="text;html=1;strokeColor=none;fillColor=none;align=center;verticalAlign=middle;whiteSpace=wrap;rounded=0;" vertex="1" parent="1">
          <mxGeometry x="1232" y="1450" width="12" height="10" as="geometry" />
        </mxCell>
        <mxCell id="fQnaNI6id1OZZP_4K0eR-201" value="&lt;b&gt;M&lt;/b&gt;" style="text;html=1;strokeColor=none;fillColor=none;align=center;verticalAlign=middle;whiteSpace=wrap;rounded=0;" vertex="1" parent="1">
          <mxGeometry x="1594" y="1330" width="20" height="20" as="geometry" />
        </mxCell>
        <mxCell id="fQnaNI6id1OZZP_4K0eR-202" value="&lt;b&gt;M&lt;/b&gt;" style="text;html=1;strokeColor=none;fillColor=none;align=center;verticalAlign=middle;whiteSpace=wrap;rounded=0;" vertex="1" parent="1">
          <mxGeometry x="1204" y="1480" width="20" height="20" as="geometry" />
        </mxCell>
        <mxCell id="fQnaNI6id1OZZP_4K0eR-203" value="&lt;b&gt;M&lt;/b&gt;" style="text;html=1;strokeColor=none;fillColor=none;align=center;verticalAlign=middle;whiteSpace=wrap;rounded=0;" vertex="1" parent="1">
          <mxGeometry x="1584" y="1743.5" width="20" height="20" as="geometry" />
        </mxCell>
        <mxCell id="fQnaNI6id1OZZP_4K0eR-204" value="&lt;b&gt;M&lt;/b&gt;" style="text;html=1;strokeColor=none;fillColor=none;align=center;verticalAlign=middle;whiteSpace=wrap;rounded=0;" vertex="1" parent="1">
          <mxGeometry x="1806" y="1380" width="10" height="10" as="geometry" />
        </mxCell>
        <mxCell id="fQnaNI6id1OZZP_4K0eR-205" value="&lt;b&gt;M&lt;/b&gt;" style="text;html=1;strokeColor=none;fillColor=none;align=center;verticalAlign=middle;whiteSpace=wrap;rounded=0;" vertex="1" parent="1">
          <mxGeometry x="1629" y="1335" width="10" height="10" as="geometry" />
        </mxCell>
        <mxCell id="fQnaNI6id1OZZP_4K0eR-206" value="&lt;b&gt;M&lt;/b&gt;" style="text;html=1;strokeColor=none;fillColor=none;align=center;verticalAlign=middle;whiteSpace=wrap;rounded=0;" vertex="1" parent="1">
          <mxGeometry x="1796" y="1410" width="10" height="10" as="geometry" />
        </mxCell>
        <mxCell id="fQnaNI6id1OZZP_4K0eR-207" value="&lt;b&gt;M&lt;/b&gt;" style="text;html=1;strokeColor=none;fillColor=none;align=center;verticalAlign=middle;whiteSpace=wrap;rounded=0;" vertex="1" parent="1">
          <mxGeometry x="1244" y="1470" width="10" height="10" as="geometry" />
        </mxCell>
        <mxCell id="fQnaNI6id1OZZP_4K0eR-208" value="&lt;b&gt;M&lt;/b&gt;" style="text;html=1;strokeColor=none;fillColor=none;align=center;verticalAlign=middle;whiteSpace=wrap;rounded=0;" vertex="1" parent="1">
          <mxGeometry x="1881" y="1430" width="10" height="10" as="geometry" />
        </mxCell>
        <mxCell id="fQnaNI6id1OZZP_4K0eR-209" value="&lt;b&gt;M&lt;/b&gt;" style="text;html=1;strokeColor=none;fillColor=none;align=center;verticalAlign=middle;whiteSpace=wrap;rounded=0;" vertex="1" parent="1">
          <mxGeometry x="1734" y="1740" width="8" height="10" as="geometry" />
        </mxCell>
        <mxCell id="fQnaNI6id1OZZP_4K0eR-210" value="registration_date" style="ellipse;whiteSpace=wrap;html=1;align=center;fillColor=#99FFFF;" vertex="1" parent="1">
          <mxGeometry x="2004" y="1460" width="100" height="40" as="geometry" />
        </mxCell>
        <mxCell id="fQnaNI6id1OZZP_4K0eR-211" value="" style="endArrow=none;html=1;rounded=0;entryX=0.982;entryY=0.999;entryDx=0;entryDy=0;exitX=0;exitY=0;exitDx=0;exitDy=0;entryPerimeter=0;" edge="1" parent="1" source="fQnaNI6id1OZZP_4K0eR-210" target="fQnaNI6id1OZZP_4K0eR-114">
          <mxGeometry width="50" height="50" relative="1" as="geometry">
            <mxPoint x="2034" y="1470" as="sourcePoint" />
            <mxPoint x="1921" y="1430" as="targetPoint" />
          </mxGeometry>
        </mxCell>
        <mxCell id="fQnaNI6id1OZZP_4K0eR-212" value="where_occured_state" style="ellipse;whiteSpace=wrap;html=1;align=center;fillColor=#99FFFF;" vertex="1" parent="1">
          <mxGeometry x="1419" y="1190" width="129" height="40" as="geometry" />
        </mxCell>
        <mxCell id="fQnaNI6id1OZZP_4K0eR-213" value="where_occured_city" style="ellipse;whiteSpace=wrap;html=1;align=center;fillColor=#99FFFF;" vertex="1" parent="1">
          <mxGeometry x="1453" y="1140" width="120" height="40" as="geometry" />
        </mxCell>
        <mxCell id="fQnaNI6id1OZZP_4K0eR-214" value="" style="endArrow=none;html=1;rounded=0;entryX=1;entryY=1;entryDx=0;entryDy=0;exitX=0.25;exitY=0;exitDx=0;exitDy=0;" edge="1" parent="1" source="fQnaNI6id1OZZP_4K0eR-118" target="fQnaNI6id1OZZP_4K0eR-212">
          <mxGeometry width="50" height="50" relative="1" as="geometry">
            <mxPoint x="1604" y="1260" as="sourcePoint" />
            <mxPoint x="1574" y="1249" as="targetPoint" />
          </mxGeometry>
        </mxCell>
        <mxCell id="fQnaNI6id1OZZP_4K0eR-215" value="" style="endArrow=none;html=1;rounded=0;entryX=1;entryY=1;entryDx=0;entryDy=0;exitX=0.315;exitY=0.01;exitDx=0;exitDy=0;exitPerimeter=0;" edge="1" parent="1" source="fQnaNI6id1OZZP_4K0eR-118" target="fQnaNI6id1OZZP_4K0eR-213">
          <mxGeometry width="50" height="50" relative="1" as="geometry">
            <mxPoint x="1614" y="1280" as="sourcePoint" />
            <mxPoint x="1566" y="1254" as="targetPoint" />
          </mxGeometry>
        </mxCell>
        <mxCell id="fQnaNI6id1OZZP_4K0eR-216" value="landmark&amp;nbsp;" style="ellipse;whiteSpace=wrap;html=1;align=center;fillColor=#99FFFF;" vertex="1" parent="1">
          <mxGeometry x="1433" y="1770" width="160" height="40" as="geometry" />
        </mxCell>
        <mxCell id="fQnaNI6id1OZZP_4K0eR-217" value="where_occured_state" style="ellipse;whiteSpace=wrap;html=1;align=center;fillColor=#99FFFF;" vertex="1" parent="1">
          <mxGeometry x="1445" y="1820" width="160" height="40" as="geometry" />
        </mxCell>
        <mxCell id="fQnaNI6id1OZZP_4K0eR-218" value="" style="endArrow=none;html=1;rounded=0;entryX=0.05;entryY=0.99;entryDx=0;entryDy=0;entryPerimeter=0;exitX=1;exitY=0;exitDx=0;exitDy=0;" edge="1" parent="1" source="fQnaNI6id1OZZP_4K0eR-217" target="fQnaNI6id1OZZP_4K0eR-119">
          <mxGeometry width="50" height="50" relative="1" as="geometry">
            <mxPoint x="1619" y="1880" as="sourcePoint" />
            <mxPoint x="1643" y="1789" as="targetPoint" />
          </mxGeometry>
        </mxCell>
        <mxCell id="fQnaNI6id1OZZP_4K0eR-219" value="" style="endArrow=none;html=1;rounded=0;entryX=0.998;entryY=0.44;entryDx=0;entryDy=0;entryPerimeter=0;exitX=-0.003;exitY=0.692;exitDx=0;exitDy=0;exitPerimeter=0;" edge="1" parent="1" source="fQnaNI6id1OZZP_4K0eR-119" target="fQnaNI6id1OZZP_4K0eR-216">
          <mxGeometry width="50" height="50" relative="1" as="geometry">
            <mxPoint x="1614" y="1770" as="sourcePoint" />
            <mxPoint x="1653" y="1799" as="targetPoint" />
          </mxGeometry>
        </mxCell>
      </root>
    </mxGraphModel>
  </diagram>
</mxfile>
